<?xml version="1.0" encoding="UTF-8"?><svg xmlns="http://www.w3.org/2000/svg" xmlns:xlink="http://www.w3.org/1999/xlink" viewBox="0 0 400 400"><defs><style>.d{fill:#00247d;}.e{fill:#fff;}.f{fill:#cf142b;}.g{clip-path:url(#b);}</style><clipPath id="b"><ellipse class="d" cx="200" cy="200" rx="199.96" ry="199.94"/></clipPath></defs><g id="a"><g><g><ellipse class="d" cx="200" cy="200" rx="199.96" ry="199.94"/><g class="g"><ellipse class="d" cx="200" cy="200" rx="199.96" ry="199.94"/><path class="f" d="M331.41,49.3C285.65,9.46,222.37-9.15,158.45,4.43,50.43,27.37-18.54,133.53,4.41,241.55c4.2,19.75,11.18,38.19,20.45,55C214.12,219.61,297.71,110.06,331.41,49.3Z"/></g></g><g><path class="e" d="M289.56,80.01c-2.57-.34-5.14-.51-7.76-.52-17.29,0-33.97,6.76-45.77,18.53-7.92,7.91-13.26,17.67-15.61,28.27l7.62,12.21c.29,.47,.45,1.01,.45,1.56v3.21c.65,.65,1.01,1.01,1.66,1.66h2.48c.88,0,1.6,.72,1.6,1.6v53.41c0,.88-.72,1.6-1.6,1.6h-4.06c-.88,0-1.6,.72-1.6,1.6v62.21c0,.88,.72,1.6,1.6,1.6h8.37c1.63,0,2.95,1.32,2.95,2.95v8.22c0,1.63-1.32,2.95-2.95,2.95h-75.26c-1.63,0-2.95-1.32-2.95-2.95v-8.22c0-1.63,1.32-2.95,2.95-2.95h8.37c.88,0,1.6-.72,1.6-1.6v-62.21c0-.88-.72-1.6-1.6-1.6h-4.06c-.88,0-1.6-.72-1.6-1.6v-53.41c0-.88,.72-1.6,1.6-1.6h2.27c.73-.73,1.14-1.14,1.87-1.87v-3c0-.55,.16-1.09,.45-1.56l8.6-13.78c-6.49-26.26-30.97-45.26-61.03-45.27-2.51,0-4.76,.22-7.57,.57-7.63,.95-13.38,7.47-13.38,15.15l-.03,164.11c.5,33.78,28.24,61.26,61.86,61.26,15.33,0,29.81-5.64,40.92-15.57,11.12,9.93,25.59,15.57,40.92,15.57,33.63,0,61.37-27.5,61.83-61.47l.16-163.9c.01-7.66-5.7-14.18-13.28-15.17Z"/><circle class="e" cx="199.31" cy="173.6" r="25.04"/><g><path class="e" d="M193.45,268.07h-9.5v-44.83c0-2.62,2.13-4.75,4.75-4.75h0c2.62,0,4.75,2.13,4.75,4.75v44.83Z"/><path class="e" d="M214.66,268.07h-9.5v-44.83c0-2.62,2.13-4.75,4.75-4.75h0c2.62,0,4.75,2.13,4.75,4.75v44.83Z"/></g></g></g></g><g id="c"/></svg>