<?xml version="1.0" encoding="UTF-8"?><svg id="a" xmlns="http://www.w3.org/2000/svg" xmlns:xlink="http://www.w3.org/1999/xlink" viewBox="0 0 400 399.95"><defs><style>.c{fill:#fff;}.d{fill:#ffbe2c;}.e{fill:#ffc200;}.f{fill:#de2810;}.g{clip-path:url(#b);}</style><clipPath id="b"><ellipse class="d" cx="200" cy="199.98" rx="199.96" ry="199.94"/></clipPath></defs><g><ellipse class="d" cx="200" cy="199.98" rx="199.96" ry="199.94"/><g class="g"><ellipse class="f" cx="200" cy="199.98" rx="199.96" ry="199.94"/><path class="e" d="M331.41,49.27C285.65,9.44,222.37-9.17,158.45,4.41,50.43,27.35-18.54,133.51,4.41,241.52c4.2,19.75,11.18,38.19,20.45,55C214.12,219.58,297.71,110.04,331.41,49.27Z"/></g></g><g><g><path class="c" d="M97.16,240.57c0,3.02,3.27,4.92,5.89,3.4,16.03-9.34,34.32-16.24,51.82-20.55,7.26-1.79,7.4-3.84,8.61-10.68,4.06-22.87,6.35-37.82,8.72-60.28,.58-5.48,3.05-6.76,6.74-8.19,1.12-.43,1.86-1.47,1.96-2.66,1.18-14.79-8.24-61.29-62.75-62.16-2.51-.04-4.76,.22-7.57,.57-7.63,.95-13.38,7.47-13.38,15.15l-.03,145.39Z"/><path class="c" d="M302.84,95.18c.01-7.66-5.7-14.18-13.28-15.17-2.57-.34-5.14-.51-7.76-.52-17.29,0-33.98,6.74-45.77,18.53-13.1,13.1-16.11,32.5-16.79,39.8-.15,1.57,1.09,2.92,2.67,2.92h20.42c5.51,0,10.01,4.41,10.11,9.92,.19,10.25,.45,26.01,.52,35.26,.02,2.82,1.61,5.39,4.13,6.65,8.24,4.11,25.91,15.11,25.26,33.74-.33,9.35-.66,25.09-.82,35.16-.08,5.14-1.89,7.1-7.14,7.08-34.06-.13-75.54,0-109.59-.03-1.88,0-4.38,.79-5.34-1.63-.95-2.4,.71-4.28,2.21-5.96,3.68-4.16,8.54-6.41,13.63-8.28,17.54-6.46,36-9.07,54.13-13.09,9.84-2.18,19.75-4.13,29.02-8.25,13.64-6.06,14.55-13.96,2.79-23.34-6.7-5.34-14.44-9-21.82-13.22-5.89-3.36-9.89-7.31-9-14.86,.44-3.71-1.02-7.83-5.54-7.67-4.41,.16-4.01,4.4-4.47,7.76-1.26,9.15,2.93,15.84,12.8,19.89,5.72,2.35,23.08,13.01,22.6,17.69-.39,3.79-3.66,4.93-6.59,5.9-10.31,3.4-21.12,3.68-31.8,4.65-22.29,2.01-44.63,3.55-66.37,9.42-17.86,4.82-35.19,10.62-48.89,23.27-3.07,2.84-4.42,7.09-3.5,11.17,6.25,27.7,31.07,48.54,60.35,48.54,15.33,0,29.81-5.64,40.92-15.57,11.12,9.93,25.59,15.57,40.92,15.57,33.63,0,61.37-27.5,61.83-61.46l.16-163.9Z"/></g><path class="c" d="M187.77,149.98c.02,14.77,0,40.08,.02,59.19,0,1.46,1.14,2.73,2.59,2.74h.1c.17,0,.34,0,.5-.03,1.34-.15,2.3-1.36,2.3-2.7,.02-20.5,0-52.53,0-62.55,0-.76,.19-1.48,.54-2.13h-6.71c.66,1.27,.73,3.18,.66,5.48Z"/></g></svg>