<?xml version="1.0" encoding="UTF-8"?><svg xmlns="http://www.w3.org/2000/svg" xmlns:xlink="http://www.w3.org/1999/xlink" viewBox="0 0 400.04 400"><defs><style>.d{fill:#fff;}.e{fill:#9e1226;}.f{fill:#bb133e;}.g{clip-path:url(#b);}</style><clipPath id="b"><ellipse class="e" cx="200.02" cy="200" rx="199.98" ry="199.96"/></clipPath></defs><g id="a"><g><ellipse class="e" cx="200.02" cy="200" rx="199.98" ry="199.96"/><g class="g"><ellipse class="e" cx="200.02" cy="200" rx="199.98" ry="199.96"/><path class="f" d="M331.44,49.28C285.67,9.44,222.4-9.17,158.47,4.41,50.43,27.35-18.54,133.52,4.41,241.55c4.2,19.75,11.19,38.19,20.45,55.01C214.14,219.61,297.74,110.05,331.44,49.28Z"/><g><path class="d" d="M289.57,80.03c-2.57-.34-5.14-.51-7.76-.52-17.28,0-33.96,6.75-45.76,18.53-5.36,5.35-8.8,11.54-10.92,18.27-3.19,10.15,4.86,20.35,15.49,19.91,15.11-.63,28.81-1.27,34.78-1.55,1.44-.07,2.42,1.42,1.8,2.72l-5.04,10.56c-.32,.66-.99,1.09-1.72,1.09h-6.24c-1.05,0-1.91,.85-1.91,1.91v9.73c0,1.05-.85,1.91-1.91,1.91h-16.78c-1.04,0-1.89,.84-1.91,1.87-.11,4.99-.12,9.79-.04,14.47,.02,1.04,.87,1.87,1.91,1.87h11.46c1.05,0,1.91,.85,1.91,1.91v14.42c0,1.05-.85,1.91-1.91,1.91h-10.33c-1.12,0-2.01,.97-1.91,2.08,2.02,22.97,6.6,44.18,13.61,69.95,.33,1.21-.58,2.42-1.84,2.42h-33.62c-1.05,0-1.91-.85-1.91-1.91v-41.73c-3.97,1.03-11.17-2.54-18.17-2.24-.32-.02-.63-.03-.94-.03-.29,0-.58,0-.87,.03-7.02-.33-14.25,3.28-18.19,2.19v41.78c0,1.05-.85,1.91-1.91,1.91h-33.65c-1.25,0-2.16-1.19-1.84-2.4,6.66-25.58,11.35-46.88,13.49-69.96,.1-1.12-.78-2.09-1.91-2.09h-10.18c-1.05,0-1.91-.85-1.91-1.91v-14.42c0-1.05,.85-1.91,1.91-1.91h11.42c1.04,0,1.89-.82,1.91-1.86,.1-4.68,.1-9.49,0-14.47-.02-1.04-.87-1.88-1.91-1.88h-16.78c-1.05,0-1.91-.85-1.91-1.91v-9.73c0-1.05-.85-1.91-1.91-1.91h-5.6c-.71,0-1.36-.39-1.69-1.02l-5.49-10.47c-.69-1.32,.32-2.89,1.81-2.79,6.11,.42,19.61,1.31,33.58,2.02,11.24,.57,19.36-10.67,15.22-21.13-8.48-21.43-28.88-36.16-55.34-36.16-2.51,0-4.76,.22-7.57,.57-7.63,.95-13.38,7.47-13.38,15.15l-.03,164.07c.5,33.77,28.24,61.24,61.85,61.24,15.33,0,29.8-5.64,40.92-15.56,11.11,9.92,25.59,15.56,40.92,15.56,33.63,0,61.36-27.5,61.82-61.45l.16-163.87c.01-7.65-5.7-14.17-13.28-15.16Z"/><g><path class="d" d="M183.99,162.59h31.9c1.73,0,3.14,1.41,3.14,3.14v11.93c0,1.73-1.41,3.14-3.14,3.14h-31.9c-1.73,0-3.14-1.41-3.14-3.14v-11.93c0-1.73,1.41-3.14,3.14-3.14Z"/><path class="d" d="M224.74,273.49l-4.92-71.44c-.12-1.7-1.53-3.01-3.23-3.01h-33.3c-1.7,0-3.11,1.32-3.23,3.01l-4.92,71.44h49.61Z"/></g></g></g></g></g><g id="c"/></svg>