<?xml version="1.0" encoding="UTF-8"?><svg xmlns="http://www.w3.org/2000/svg" xmlns:xlink="http://www.w3.org/1999/xlink" viewBox="0 0 400 400"><defs><style>.d{fill:#0047a0;}.e{fill:#fff;}.f{fill:#ee1c25;}.g{fill:#c90018;}.h{clip-path:url(#b);}</style><clipPath id="b"><ellipse class="d" cx="200" cy="200" rx="199.98" ry="199.96"/></clipPath></defs><g id="a"><g><ellipse class="d" cx="200" cy="200" rx="199.98" ry="199.96"/><g class="h"><ellipse class="g" cx="200" cy="200" rx="199.98" ry="199.96"/><path class="f" d="M331.43,49.28C285.66,9.44,222.38-9.17,158.45,4.41,50.41,27.36-18.56,133.53,4.39,241.55c4.2,19.75,11.19,38.19,20.45,55.01C214.12,219.61,297.72,110.05,331.43,49.28Z"/><g><path class="e" d="M289.56,80.01c-2.57-.34-5.14-.51-7.76-.52-17.28,0-33.97,6.76-45.77,18.53-6.93,6.92-11.89,15.25-14.6,24.33-2.59,8.69,2.14,17.88,10.76,20.7l21.63,7.08c1.32,0,2.39,1.07,2.39,2.39v9.48c0,1.32-1.07,2.39-2.39,2.39h-2.54v88.32c0,3.7-3,6.69-6.69,6.69h-7.29v6.87c5.82,.81,10.31,5.78,10.33,11.83,0,1.33-1.05,2.42-2.38,2.42h-90.51c-1.33,0-2.38-1.09-2.38-2.42,.02-6.04,4.51-11.02,10.33-11.82v-6.87h-7.29c-3.7,0-6.69-3-6.69-6.69v-88.32h-2.54c-1.32,0-2.39-1.07-2.39-2.39v-9.48c0-1.32,1.07-2.39,2.39-2.39l21.63-7.12c8.45-2.78,13.3-11.73,10.85-20.28-7.21-25.22-31.22-43.27-60.52-43.28-2.51,0-4.76,.22-7.57,.57-7.63,.95-13.38,7.47-13.38,15.15l-.03,164.11c.5,33.78,28.24,61.26,61.86,61.26,15.33,0,29.81-5.64,40.92-15.57,11.12,9.93,25.59,15.57,40.92,15.57,33.63,0,61.37-27.5,61.83-61.47l.16-163.9c.01-7.66-5.7-14.18-13.28-15.17Z"/><g><g><rect class="e" x="186.76" y="168.17" width="26.47" height="45.24" rx="2.18" ry="2.18"/><rect class="e" x="226.84" y="168.17" width="12.91" height="45.24" rx="2.18" ry="2.18"/><rect class="e" x="160.25" y="168.17" width="12.91" height="45.24" rx="2.18" ry="2.18"/></g><g><circle class="e" cx="227.93" cy="235.21" r="7.17"/><circle class="e" cx="172.07" cy="235.21" r="7.17"/></g></g></g></g></g></g><g id="c"/></svg>