<?xml version="1.0" encoding="UTF-8"?><svg id="a" xmlns="http://www.w3.org/2000/svg" xmlns:xlink="http://www.w3.org/1999/xlink" viewBox="0 0 400 399.95"><defs><style>.c{fill:#fff;}.d{fill:#ffbe2c;}.e{fill:#dd1d3f;}.f{fill:#0d1e42;}.g{clip-path:url(#b);}</style><clipPath id="b"><ellipse class="d" cx="200" cy="199.98" rx="199.96" ry="199.94"/></clipPath></defs><g><ellipse class="d" cx="200" cy="199.98" rx="199.96" ry="199.94"/><g class="g"><ellipse class="e" cx="200" cy="199.98" rx="199.96" ry="199.94"/><path class="f" d="M331.41,49.27C285.65,9.44,222.37-9.17,158.45,4.41,50.43,27.35-18.54,133.51,4.41,241.52c4.2,19.75,11.18,38.19,20.45,55C214.12,219.58,297.71,110.04,331.41,49.27Z"/></g></g><g><path class="c" d="M289.56,80.29c-2.57-.34-5.14-.51-7.76-.52-17.29,0-33.97,6.76-45.77,18.53-10.95,10.93-16.98,25.39-16.98,40.73v27.8c0,1.18,.77,2.23,1.89,2.58h.04c1.39,.45,2.35,1.72,2.38,3.18,.16,8.58,.48,23.42,.52,36.29,0,1.88-.14,2.62-2.38,1.95-5.31-1.58-10.67-3.41-16.17-4.22-4.82-.71-9.69-.09-14.44,.84-4.31,.85-8.83,1.58-12.98,3.03-1.88,.65-2.03-.16-2.02-1.69,.05-5.53,.02-11.05,.02-16.58,0-32.42,.02-20.41-.06-52.83,0-2.24,.4-3.68,2.83-3.83,1.83-.11,1.71-1.34,1.71-2.63,0-.47,0-.95,0-1.43-3.79-29.56-29.76-51.76-62.24-51.76-2.51,0-4.76,.22-7.57,.57-7.63,.95-13.38,7.47-13.38,15.15l-.03,164.11c.5,33.78,28.24,61.25,61.86,61.25,15.33,0,29.81-5.64,40.92-15.57,11.12,9.93,25.59,15.57,40.92,15.57,33.63,0,61.37-27.5,61.83-61.46l.16-163.9c.01-7.66-5.7-14.18-13.28-15.17Zm-36.94,193.45c-16.84-.07-37.3-.04-53.71-.04h0c-16.26,.01-35.85,.33-52.46,.33-1.42,0-2.69-1.06-2.77-2.48-.09-1.52,1.1-2.79,2.61-2.8,4.56-.04,10.15-.09,14.18,.06,2.08,.07,2.41-.67,2.4-2.52-.07-15.67,0-9.08-.09-24.76-.01-1.89,.46-2.61,2.4-2.72,2.88-.16,5.73-.75,8.61-.91,1.64-.09,1.99-.67,1.98-2.23-.06-14.27-.01-2.41-.07-16.68,0-1.84,.34-2.48,2.67-3.02,5.83-1.34,10.63-2.62,16.28-3.54,3.52-.58,3.86-.71,3.86,1.62-.05,33.42-.03,18.43-.06,51.84,0,1.71,.07,2.65,2.29,2.6,2.1-.04,2.55-.6,2.55-2.63-.06-33.25-.02-18.1-.09-51.35,0-2.23,.24-2.55,2.65-2.11,5.18,.95,11.46,2.8,16.33,4.03,1.68,.42,2.11,1.2,2.1,2.88-.08,14.03-.02,1.91-.08,15.94,0,1.78,.34,2.68,2.34,2.84,2.37,.18,4.71,.89,7.08,1.12,1.9,.19,2.36,1,2.35,2.84-.08,15.26,0,8.26-.09,23.53-.01,2.17,.39,3,2.78,2.89,3.86-.18,9.57,.01,14.08-.05,1.53-.02,2.76,1.24,2.69,2.78-.07,1.45-1.36,2.54-2.81,2.53Z"/><path class="c" d="M187.68,172.85v20.81c0,5.9,0,5.87,5.78,4.49,1.1-.26,1.66-.55,1.64-1.86-.09-10.63-.04-18.89-.05-28.7,0-1.03,.33-1.43,1.33-1.61,2.42-.42,4.8-1.08,7.22-1.41,1.34-.18,2.33-1.35,2.33-2.71,0-3.89,.14-7.28,.09-14.62-.03-4.93-.65-8.24-6.01-9.08-1.14-.18-1.55-.92-1.5-2.13,.1-2.55-.02-42.04,.07-54.25,.02-2.07-.58-2.62-2.61-2.61-1.99,0-2.62,.48-2.61,2.58,.09,16.91,.05,37.49,.05,54.41l-4.48-.08c-.72-.01-1.31,.57-1.3,1.29,.06,17.54,.03,17.04,.03,35.48Z"/><path class="c" d="M207.1,198.8c1.73,.75,2.25,.21,2.23-1.65-.06-8.52-.08-23.74-.08-27.61,0-.49-.44-.86-.93-.78-1.44,.24-3.04,.69-4.23,1.21-1.04,.46-.84,1.44-.84,2.27,.02,6.92,.07,11.39-.07,23.1-.02,1.96,3.47,3.27,3.92,3.46Z"/></g></svg>