<?xml version="1.0" encoding="UTF-8"?><svg id="a" xmlns="http://www.w3.org/2000/svg" xmlns:xlink="http://www.w3.org/1999/xlink" viewBox="0 0 400 399.95"><defs><style>.c{fill:#0039a6;}.d{fill:#fff;}.e{fill:#ffbe2c;}.f{fill:#d52b1e;}.g{clip-path:url(#b);}</style><clipPath id="b"><ellipse class="e" cx="200" cy="199.98" rx="199.96" ry="199.94"/></clipPath></defs><g><ellipse class="e" cx="200" cy="199.98" rx="199.96" ry="199.94"/><g class="g"><ellipse class="f" cx="200" cy="199.98" rx="199.96" ry="199.94"/><path class="c" d="M331.41,49.27C285.65,9.44,222.37-9.17,158.45,4.41,50.43,27.35-18.54,133.51,4.41,241.52c4.2,19.75,11.18,38.19,20.45,55C214.12,219.58,297.71,110.04,331.41,49.27Z"/></g></g><g><path class="d" d="M289.56,80.01c-2.57-.34-5.14-.51-7.76-.52-17.29,0-33.97,6.76-45.77,18.53-10.95,10.93-16.98,25.39-16.98,40.73v18.05c.66,1.96,1.4,3.87,2.68,5.71,3.39,4.86,6.11,10.19,9.13,15.32,.68,1.15,.63,2.23,.03,3.41-1.46,2.85-2.77,5.78-4.31,8.58-1.03,1.89-1.53,3.79-1.08,6.08,.36-.23,.73-.42,1.04-.67,8.65-6.93,15.63-15.26,20.8-25.05,.43-.81,1.33-2.51,1.85-3.49,.24-.45,.7-.73,1.21-.73s.98,.28,1.21,.73c.71,1.36,2.26,4.29,3.19,5.88,6.18,10.56,14.28,19.3,24.32,26.23,6.35,4.39,10.61,10.07,11.59,17.83,1.24,9.84-2.35,17.72-10.3,23.57-1.12,.82-1.48,1.61-1.47,2.92,.05,7.79,.03,15.57,.02,23.36,0,2.7-.79,3.52-3.44,3.52-19.11,0-38.22,0-57.34,0-1.72,0-3.12-1.4-3.12-3.12v-8.27c0-8.11-6.23-15.09-14.33-15.47-8.65-.41-15.79,6.48-15.79,15.04v8.69c0,1.72-1.4,3.12-3.12,3.12-17.38,0-34.76,0-52.13,0-2.6,0-3.38-.78-3.39-3.37-.01-6.76,.03-13.51-.05-20.27,0-.71-.46-1.66-1.02-2.07-2.62-1.88-4.93-4.2-6.65-6.94-3.42-5.47-4.41-12.28-2.66-18.45,1.63-5.76,5.1-10.11,10-13.49,9.67-6.67,17.45-15.08,23.29-25.31,.54-.95,1.22-2.5,1.69-3.64,.28-.66,.82-1.21,1.52-1.39,1.12-.28,2.22,.31,2.62,1.32,.51,1.28,1.3,3.16,2,4.31,4.58,7.56,10.08,14.3,16.84,20,.47,.39,.96,.75,1.85,1.44-.55-5.01,1.08-9.77-1.76-14.17-1.21-1.86-1.9-4.04-3.04-5.95-1.12-1.88-.91-3.44,.21-5.24,2.64-4.28,4.81-8.89,7.75-12.95,.53-.73,1.23-2.25,2-4.18v-20.98c0-33.22-27.56-59.25-62.74-59.25-2.51,0-4.76,.22-7.57,.57-7.63,.95-13.38,7.47-13.38,15.15l-.03,164.11c.5,33.78,28.24,61.25,61.86,61.25,15.33,0,29.81-5.64,40.92-15.57,11.12,9.93,25.59,15.57,40.92,15.57,33.63,0,61.37-27.5,61.83-61.46l.16-163.9c.01-7.66-5.7-14.18-13.28-15.17Z"/><path class="d" d="M250.28,193.17c.56-1.31,2.42-1.28,2.94,.04,2.2,5.59,4.44,11.01,6.18,16.62,1.86,6.01,1.47,12.34,.24,18.54-.22,1.09-.61,2.16-1.01,3.2-.79,2.03-2.01,2.82-4.27,2.98-2.14,.15-3.9,.22-5.81,0-1.83-.22-2.87-.86-3.63-2.44-1.42-2.94-1.79-6.16-2.04-9.41-.58-7.65,.84-14.86,3.99-21.71,1.17-2.54,2.27-5.11,3.42-7.81Z"/><path class="d" d="M262.15,201.11c-.59-1.58,1.36-2.85,2.58-1.69,2.74,2.62,5.62,5.04,8.54,7.43,4.97,4.06,6.59,11.41,4.34,17.7-1.84,5.17-5.95,8.71-10.89,9.65-1.69,.32-3.07-1.3-2.62-2.95,2.88-10.52,1.68-20.48-1.94-30.14Z"/><path class="d" d="M237.89,199.27c1.24-1.2,3.23,.13,2.58,1.73-.25,.6-.49,1.22-.72,1.83-3.54,9.28-3.92,18.79-1.48,28.45v.03c.43,1.66-.91,3.27-2.6,2.96-4.88-.9-9.53-5.14-11.14-10.65-1.75-6-.05-12.56,4.39-16.57,2.6-2.35,5.4-4.45,7.97-6.84,.33-.31,.67-.63,.99-.94Z"/><path class="d" d="M152.02,198.82c.56-1.31,2.42-1.28,2.94,.04,2.2,5.59,4.44,11.01,6.18,16.62,1.86,6.01,1.47,12.34,.24,18.54-.22,1.09-.61,2.16-1.01,3.2-.79,2.03-2.01,2.82-4.27,2.98-2.14,.15-3.9,.22-5.81,0s-2.87-.86-3.63-2.44c-1.42-2.94-1.79-6.16-2.04-9.41-.58-7.65,.84-14.86,3.99-21.71,1.17-2.54,2.27-5.11,3.42-7.81Z"/><path class="d" d="M163.89,206.76c-.59-1.58,1.36-2.85,2.58-1.69,2.74,2.62,5.62,5.04,8.54,7.43,4.97,4.06,6.59,11.41,4.34,17.7-1.84,5.17-5.95,8.71-10.89,9.65-1.69,.32-3.07-1.3-2.62-2.95,2.88-10.52,1.68-20.48-1.94-30.14Z"/><path class="d" d="M139.64,204.92c1.24-1.2,3.23,.13,2.58,1.73-.25,.6-.49,1.22-.72,1.83-3.54,9.28-3.92,18.79-1.48,28.45v.03c.43,1.66-.91,3.27-2.6,2.96-4.88-.9-9.53-5.14-11.14-10.65-1.75-6-.05-12.56,4.39-16.57,2.6-2.35,5.4-4.45,7.97-6.84,.33-.31,.67-.63,.99-.94Z"/></g></svg>