<?xml version="1.0" encoding="UTF-8"?><svg xmlns="http://www.w3.org/2000/svg" xmlns:xlink="http://www.w3.org/1999/xlink" viewBox="0 0 400 399.95"><defs><style>.d{fill:#002653;}.e{fill:#fff;}.f{fill:#ffbe2c;}.g{fill:#ce1127;}.h{clip-path:url(#b);}</style><clipPath id="b"><ellipse class="f" cx="200" cy="199.98" rx="199.96" ry="199.94"/></clipPath></defs><g id="a"><g><g><ellipse class="f" cx="200" cy="199.98" rx="199.96" ry="199.94"/><g class="h"><ellipse class="g" cx="200" cy="199.98" rx="199.96" ry="199.94"/><path class="d" d="M331.41,49.27C285.65,9.44,222.37-9.17,158.45,4.41,50.43,27.35-18.54,133.51,4.41,241.52c4.2,19.75,11.18,38.19,20.45,55C214.12,219.58,297.71,110.04,331.41,49.27Z"/></g></g><path class="e" d="M289.54,80.03c-2.57-.34-5.14-.51-7.76-.52-17.28,0-33.96,6.75-45.76,18.53-10.95,10.92-16.98,25.38-16.98,40.71v3.86c0,10.29,.91,20.57,2.81,30.69,2.4,12.75,5.28,24.15,8.68,32.11,1.86,4.37,3.8,8.49,5.78,12.41h9.52c2.06,0,3.74,1.67,3.74,3.74v18.76c7.77,11.32,15.42,19.73,21.65,25.63,2.31,2.19,3.4,5.47,2.51,8.53-1.05,3.61-4.28,6-7.97,6h-30.6c-3.36,0-6.39-2.06-7.71-5.25-4.24-10.24-15.16-17.15-27.2-17.25h-.27c-12.12,.02-23.13,6.95-27.4,17.25-1.32,3.19-4.35,5.25-7.71,5.25h-30.27c-3.19,0-6.26-1.66-7.71-4.5-1.7-3.34-.99-7.28,1.69-9.8,6.27-5.91,14.01-14.38,21.88-25.84v-18.76c0-2.06,1.67-3.74,3.74-3.74h9.52c1.98-3.92,3.91-8.04,5.78-12.41,3.34-7.84,6.2-19.03,8.57-31.55,1.93-10.17,2.84-20.51,2.84-30.86v-4.29c0-33.21-27.55-59.23-62.73-59.23-2.51,0-4.76,.22-7.57,.57-7.63,.95-13.38,7.47-13.38,15.15l-.03,164.06c.5,33.77,28.24,61.24,61.84,61.24,15.33,0,29.8-5.64,40.91-15.56,11.11,9.92,25.59,15.56,40.91,15.56,33.62,0,61.35-27.49,61.82-61.44l.16-163.85c.01-7.65-5.7-14.17-13.28-15.16Z"/><path class="e" d="M200.04,207.79h-.07c-6.69-.19-12.66,.83-16.68,1.8-1.58,.38-2.78-1.37-1.91-2.74,6.75-10.69,13.09-33.73,16.35-46.87,.59-2.38,3.97-2.38,4.56,0,3.26,13.14,9.59,36.18,16.34,46.87,.87,1.37-.33,3.12-1.91,2.74-4.02-.96-9.99-1.99-16.68-1.8Z"/><path class="e" d="M218.37,222.27h-36.74c-1.04,0-1.99,.54-2.53,1.43l-7.9,13.18c-1.18,1.96,.24,4.46,2.53,4.46h52.54c2.29,0,3.71-2.5,2.53-4.46l-7.9-13.18c-.53-.89-1.49-1.43-2.53-1.43Z"/></g></g><g id="c"/></svg>