<?xml version="1.0" encoding="UTF-8"?><svg id="a" xmlns="http://www.w3.org/2000/svg" xmlns:xlink="http://www.w3.org/1999/xlink" viewBox="0 0 400 400"><defs><style>.c{fill:#fff;}.d{fill:#ffbe2c;}.e{fill:#ee1b24;}.f{fill:#241d52;}.g{clip-path:url(#b);}</style><clipPath id="b"><ellipse class="d" cx="200" cy="199.98" rx="199.96" ry="199.94"/></clipPath></defs><g><ellipse class="d" cx="200" cy="199.98" rx="199.96" ry="199.94"/><g class="g"><ellipse class="e" cx="200" cy="199.98" rx="199.96" ry="199.94"/><path class="f" d="M331.41,49.27C285.65,9.44,222.37-9.17,158.45,4.41,50.43,27.35-18.54,133.51,4.41,241.52c4.2,19.75,11.18,38.19,20.45,55C214.12,219.58,297.71,110.04,331.41,49.27Z"/></g></g><rect class="c" x="194.14" y="156.18" width="11.72" height="29.74" rx="1.65" ry="1.65"/><rect class="c" x="194.14" y="235.81" width="11.72" height="29.74" rx="1.65" ry="1.65"/><rect class="c" x="221.86" y="235.81" width="11.72" height="29.74" rx="1.65" ry="1.65"/><rect class="c" x="166.43" y="235.81" width="11.72" height="29.74" rx="1.65" ry="1.65"/><path class="c" d="M289.56,80.01c-2.57-.34-5.14-.51-7.76-.52-17.29,0-33.97,6.76-45.77,18.53-8.96,8.94-14.62,20.24-16.39,32.44-.61,4.2-.38,8.48,.77,12.52,.24,.85,.77,1.62,1.56,2.02,1.64,.83,2.76,2.52,2.76,4.48,0,.79-.2,1.53-.52,2.2-.06,.15-.14,.29-.23,.43-.18,.3-.39,.57-.63,.83-.74,.78-1.14,1.84-.95,2.9,.03,.18,.07,.36,.11,.55,1.63,7.21,3.2,14.45,4.77,21.68q1.23,5.68-1.29,10.63c.05,.07,1.13,2.37,2.91,6.18h4.38c2.89,0,5.48,2.05,5.88,4.91,.45,3.28-1.87,6.11-4.95,6.5,2.51,5.41,5.42,11.67,8.46,18.22,.55-3.14,1.41-6.25,1.59-9.41,.15-2.8,.87-5.32-1.05-8.05-1.68-2.39-.27-4.79,2.5-5.42,2.79-.63,3.17-2.24,3.14-4.61-.07-6.99,0-13.98-.04-20.97-.01-2.46,.35-4.74,2.18-6.54,1.42-1.39,1.44-3.15,1.44-4.95-.01-7.23-.03-14.45,.01-21.68,.02-3.69,1.61-5.75,4.31-5.58,2.7-.16,4.29,1.9,4.31,5.58,.05,7.23,.03,14.45,.01,21.68,0,1.8,.02,3.56,1.44,4.95,1.84,1.8,2.2,4.08,2.18,6.54-.04,6.99,.04,13.98-.04,20.97-.02,2.37,.36,3.98,3.14,4.61,2.77,.63,4.18,3.03,2.5,5.42-1.92,2.72-1.2,5.25-1.05,8.05,.36,6.51,3.68,12.88,1.03,19.54-.27,.67,5.72,27.87,6.12,29.73,.41,1.89,1.85,2.25,3.52,2.24,1.22,0,2.33,.35,3.24,1.22,2.12,2.01,1.67,5.08-1.06,6.87-.84,.55-2.25,.64-1.64,2.18,.33,.84,.48,1.99,1.13,2.62,.39,.38,.66,.86,.66,1.41v.29c0,1.01-.82,1.84-1.83,1.84-3.44,0-6.9,0-10.35,0h0c-4.06,0-8.37,0-12.85,0-.38,0-.79,0-1.25,0-1.54,0-3.03,0-4.5,0-6.96,0-13.66,0-20.18,0h0c-21.58,0-44.28,0-62.59,0h0c-6.52,0-13.22,.01-20.18,.01-1.47,0-2.96,0-4.5,0-.49,0-.91,0-1.31,0-3.18,0-6.38,0-9.58,0h0c-.93,0-1.88,0-2.83,0h0c-3.58,0-7.16,0-10.73,0-1.01,0-1.83-.82-1.83-1.84v-.29c0-.54,.27-1.03,.66-1.41,.65-.63,.8-1.78,1.13-2.62,.61-1.54-.8-1.63-1.64-2.18-2.73-1.79-3.18-4.86-1.06-6.87,.91-.87,2.02-1.22,3.24-1.22,1.68,.01,3.11-.35,3.52-2.24,.4-1.86,6.39-29.06,6.12-29.73-2.65-6.67,.67-13.03,1.03-19.54,.15-2.8,.87-5.32-1.05-8.05-1.68-2.39-.27-4.79,2.5-5.42,2.79-.63,3.17-2.24,3.14-4.61-.07-6.99,0-13.98-.04-20.97-.01-2.46,.35-4.74,2.18-6.54,1.42-1.39,1.44-3.15,1.44-4.95-.01-7.23-.03-14.45,.01-21.68,.02-3.69,1.61-5.75,4.31-5.58,2.7-.16,4.29,1.9,4.31,5.58,.05,7.23,.03,14.45,.01,21.68,0,1.8,.02,3.56,1.44,4.95,1.84,1.8,2.2,4.08,2.18,6.54-.04,6.99,.04,13.98-.04,20.97-.02,2.37,.36,3.98,3.14,4.61,2.77,.63,4.18,3.03,2.5,5.42-1.92,2.72-1.2,5.25-1.05,8.05,.19,3.43,1.19,6.81,1.72,10.22,3.18-6.85,6.23-13.41,8.86-19.04-3.06-.42-5.35-3.25-4.88-6.51,.41-2.85,2.99-4.89,5.87-4.89h4.37c1.82-3.82,2.94-6.11,3.04-6.13-3.5-3.58-2.52-7.52-1.6-11.52,1.62-6.98,3.09-14,4.68-20.99v-.03c.25-1.09-.08-2.26-.9-3.02-1.01-.92-1.64-2.23-1.64-3.7,0-1.98,1.14-3.69,2.81-4.51,.81-.4,1.37-1.18,1.61-2.06,.91-3.35,1.25-6.83,.89-10.28-3.12-30.27-29.42-53.19-62.43-53.19-2.51,0-4.76,.22-7.57,.57-7.63,.95-13.38,7.47-13.38,15.15l-.03,164.11c.5,33.78,28.24,61.25,61.86,61.25,15.33,0,29.81-5.64,40.92-15.57,11.12,9.93,25.59,15.57,40.92,15.57,33.63,0,61.37-27.5,61.83-61.46l.16-163.9c.01-7.66-5.7-14.18-13.28-15.17Z"/></svg>