<?xml version="1.0" encoding="UTF-8"?><svg xmlns="http://www.w3.org/2000/svg" xmlns:xlink="http://www.w3.org/1999/xlink" viewBox="0 0 400 400"><defs><style>.d{fill:#fff;}.e{fill:#bc0400;}.f{fill:#c10e05;}.g{fill:#d52b1e;}.h{clip-path:url(#b);}</style><clipPath id="b"><ellipse class="e" cx="200" cy="200" rx="199.96" ry="199.94"/></clipPath></defs><g id="a"><g><g><ellipse class="e" cx="200" cy="200" rx="199.96" ry="199.94"/><g class="h"><ellipse class="f" cx="200" cy="200" rx="199.96" ry="199.94"/><path class="g" d="M331.41,49.3C285.65,9.46,222.37-9.15,158.45,4.43,50.43,27.37-18.54,133.53,4.41,241.55c4.2,19.75,11.18,38.19,20.45,55C214.12,219.61,297.71,110.06,331.41,49.3Z"/></g></g><g><path class="d" d="M289.56,80.01c-2.57-.34-5.14-.51-7.76-.52-17.28,0-33.97,6.76-45.77,18.53-2.67,2.67-4.86,5.54-6.65,8.59-4.99,8.51,.52,19.57,10.36,20.38,.07,0,.13,.01,.2,.02,2.82,.2,5.45,2.04,5.64,5.1,.25,4.04,.44,8.22-1.14,12.11-1.61,3.97-6.8,4.92-9.96,2.04-3.84-3.5-8.68-4.31-13.16-2.18-1.77,.84-3.46,1.83-3.36,4.15,.1,2.37,1.18,4.19,3.46,5.08,2.82,1.1,5.61,1.55,8.75,.88,4.57-.98,7.56,1.59,8.1,6.25,.39,3.36-1.45,5-6.36,5.66-.54,.07-1.08,.23-1.62,.21-3.25-.12-2.94,1.24-1.53,3.33,2.7,4,4.63,8.36,5.12,13.2,.32,3.21,1.79,3.46,4.39,2.29,3.04-1.36,6.2-2.06,9.46-.47,2.61,1.27,3.53,2.61,1.21,5.22-6.31,7.11-10.74,15.37-14.2,24.19-3.26,8.29-3.02,15.96,2.56,23.51,5.4,7.31,7.38,15.75,4.97,24.79-.13,.51-.29,1.01-.45,1.52-3.34,10.11-13.16,16.66-23.81,16.6l-30.23-.17c-7.06-.04-13.86-3-18.48-8.35-12.57-14.54-19.51-41.4-3.96-69.38,.1-.18,.2-.68,.29-1.41h-7.52c-2.37,0-4.05-2.3-3.33-4.56l9.34-29.42h-4.21c-1.87,0-3.41-1.48-3.5-3.35-.32-7.2-.62-24.33,2.96-34.82,1.1-3.24,2.98-5.79,5.2-7.79,5.13-4.64,6.26-12.3,2.24-17.92-10.44-14.58-27.63-23.88-48.66-23.88-2.51,0-4.76,.22-7.57,.57-7.63,.95-13.38,7.47-13.38,15.15l-.03,164.11c.5,33.78,28.24,61.26,61.86,61.26,15.33,0,29.81-5.64,40.92-15.57,11.12,9.93,25.59,15.57,40.92,15.57,33.63,0,61.37-27.5,61.83-61.47l.16-163.9c.01-7.66-5.7-14.18-13.28-15.17Z"/><g><path class="d" d="M177.37,132.21l-.57-.55c-.11,.1-.27,.19-.31,.31-.5,1.73-1.12,3.44-1.44,5.2-2.27,12.7,.44,24.85,6.51,36.52,2.36,4.53,5.11,8.92,7.96,13.24,3.08,4.68,5.31,9.64,7.14,14.74,.64,1.78,3.21,1.52,3.48-.36,1.72-11.89-.69-23.25-9.48-33.27-9.54-10.88-14.37-22.6-13.3-35.82Z"/><path class="d" d="M199.12,250.21c-.2,8.33,6.33,11.88,12.1,11.57,8.66-.46,11.66-7.22,11.64-12.06-.02-4.7-4.19-10.16-10.65-10.36-8.73-.26-13.05,5.12-13.1,10.85Z"/></g></g></g></g><g id="c"/></svg>