<?xml version="1.0" encoding="UTF-8"?><svg id="a" xmlns="http://www.w3.org/2000/svg" xmlns:xlink="http://www.w3.org/1999/xlink" viewBox="0 0 400 399.95"><defs><style>.c{fill:#fff;}.d{fill:#ffbe2c;}.e{fill:#c10e05;}.f{fill:#d52b1e;}.g{clip-path:url(#b);}</style><clipPath id="b"><ellipse class="d" cx="200" cy="199.98" rx="199.96" ry="199.94"/></clipPath></defs><g><ellipse class="d" cx="200" cy="199.98" rx="199.96" ry="199.94"/><g class="g"><ellipse class="f" cx="200" cy="199.98" rx="199.96" ry="199.94"/><path class="e" d="M331.41,49.27C285.65,9.44,222.37-9.17,158.45,4.41,50.43,27.35-18.54,133.51,4.41,241.52c4.2,19.75,11.18,38.19,20.45,55C214.12,219.58,297.71,110.04,331.41,49.27Z"/></g></g><g><path class="c" d="M289.56,80.01c-2.57-.34-5.14-.5-7.76-.52-35.47-.23-59.74,23.58-68.81,43.61v.03c2.29,1.19,2.72,4.33,.8,5.73-.24,.23-.51,.45-.82,.66-.11,.07-.21,.15-.3,.22-.73,.74-1.02,1.58-1.1,2.52,.02,1,.05,2.01,.05,3.02,.01,.58,0,1.16-.03,1.73-.01,.33-.02,.67-.04,1-.03,.46-.02,.85,.04,1.19,.23,.99,.94,1.46,2.34,1.56,.08,0,.15,0,.23,0,1.78-.06,3.55,.17,5.26,.67,3.14,.82,5.91,2.46,8.21,4.97,1.67,1.76,2.93,3.79,3.75,5.98,1.57,4.07,1.53,8.44-.03,12.46-1.15,2.97-4.08,4.87-7.26,4.87h-47.06c-3.18,0-6.11-1.9-7.26-4.87-1.56-4.01-1.59-8.39-.03-12.46,.82-2.19,2.08-4.23,3.75-5.98,2.31-2.51,5.08-4.15,8.21-4.97,1.71-.49,3.48-.72,5.26-.67,.08,0,.16,0,.23,0,1.4-.1,2.11-.57,2.34-1.56,.06-.34,.07-.73,.04-1.19-.02-.33-.03-.66-.04-1-.04-.58-.04-1.15-.03-1.73,0-1.01,.03-2.01,.05-3.02-.08-.94-.37-1.78-1.1-2.52-.1-.07-.19-.15-.3-.22-.31-.2-.58-.42-.82-.66-1.92-1.4-1.5-4.53,.77-5.72v-.03c-9.37-25.42-40.53-43.65-69.97-43.66-2.51,0-4.76,.22-7.57,.57-7.63,.95-13.38,7.47-13.38,15.15l-.03,164.11c.5,33.78,28.24,61.25,61.86,61.25,15.33,0,29.81-5.64,40.92-15.57,11.12,9.93,25.59,15.57,40.92,15.57,33.63,0,61.37-27.5,61.83-61.46l.16-163.9c.01-7.66-5.7-14.18-13.28-15.17Zm-44.15,193.44h-89.69c-2.43,0-4.6-1.78-4.83-4.19-.26-2.77,1.91-5.11,4.63-5.11h16.09c2.7,0,5.11-1.67,6.06-4.2l.02-.05c4.05-10.78,11.84-27.56,11.84-66.86,0-2.35-.55-2.59-3.42-2.73-1.52,.02-2.91-.22-4.16-.65l-.06-.02c-.17-.06-.33-.12-.49-.19-.07-.03-.13-.05-.19-.08-.13-.06-.26-.11-.39-.18-.1-.05-.2-.1-.3-.15-.09-.05-.19-.09-.28-.14-.18-.1-.35-.2-.53-.31l-.03-.02c-2.3-1.44-3.97-3.66-4.67-6.2v-.05c-.74-2.53,1.29-5.03,3.93-5.03h43.27c2.64,0,4.67,2.5,3.94,5.03v.05c-.71,2.54-2.38,4.76-4.68,6.2l-.03,.02c-.17,.11-.35,.21-.53,.31-.09,.05-.18,.1-.28,.14-.1,.05-.2,.1-.3,.15-.13,.06-.26,.12-.39,.18-.06,.03-.13,.05-.19,.08-.16,.07-.33,.13-.49,.19-.02,0-.04,.01-.06,.02-1.25,.43-2.64,.67-4.16,.65-2.87,.14-3.42,.37-3.42,2.73,0,39.3,7.79,56.08,11.84,66.86l.02,.06c.96,2.52,3.37,4.19,6.07,4.19h16.07c2.72,0,4.89,2.33,4.63,5.11-.23,2.42-2.4,4.19-4.83,4.19Z"/><path class="c" d="M200.61,115.05c-1.95,0-3.91,0-5.86,0-.7,0-.78-.09-.65-.76,1.24-6.49,2.48-12.98,3.73-19.47,.07-.37,.12-.74,.23-1.1,.36-1.23,1.4-2.02,2.62-2.02,1.22,0,2.3,.78,2.61,2.02,.31,1.23,.5,2.48,.74,3.73,1.07,5.59,2.14,11.18,3.21,16.77,.14,.75,.09,.81-.7,.82-1.97,0-3.95,0-5.92,0Z"/></g></svg>