<?xml version="1.0" encoding="UTF-8"?><svg xmlns="http://www.w3.org/2000/svg" xmlns:xlink="http://www.w3.org/1999/xlink" viewBox="0 0 400.04 400"><defs><style>.d{fill:#0047a0;}.e{fill:#fff;}.f{fill:#cd2e3a;}.g{clip-path:url(#b);}</style><clipPath id="b"><ellipse class="d" cx="200.02" cy="200" rx="199.98" ry="199.96"/></clipPath></defs><g id="a"><g><ellipse class="d" cx="200.02" cy="200" rx="199.98" ry="199.96"/><g class="g"><ellipse class="f" cx="200.02" cy="200" rx="199.98" ry="199.96"/><path class="d" d="M331.44,49.28C285.67,9.44,222.4-9.17,158.47,4.41,50.43,27.35-18.54,133.52,4.41,241.55c4.2,19.75,11.19,38.19,20.45,55.01C214.14,219.61,297.74,110.05,331.44,49.28Z"/><path class="e" d="M289.57,80.03c-2.57-.34-5.14-.51-7.76-.52-17.28,0-33.96,6.75-45.76,18.53-10.95,10.93-16.98,25.39-16.98,40.72v3.3c0,6.2,5.03,11.23,11.23,11.23h.13v-3.18c0-1.9,1.29-3.64,3.15-4,2.51-.48,4.71,1.43,4.71,3.86v4.2c.74,.36,1.44,.8,2.06,1.37,7.91,7.25,19.02,12.46,24.12,13.29,.93,.15,1.17,1.37,.37,1.87l-13.47,8.48c-.32,.2-.52,.56-.52,.94v9.22c0,.38,.18,.73,.5,.94,7.47,5,16.45,10.18,20.88,10.9,.93,.15,1.17,1.37,.37,1.87l-13.47,8.48c-.32,.2-.52,.56-.52,.94v9.81c0,.62,.5,1.11,1.11,1.11h3.84c.39,0,.74,.22,.91,.57l19.82,47.1c1.27,3.01-.95,6.35-4.22,6.35h-54.71c-2.53,0-4.57-2.05-4.57-4.57v-10.95c0-11.78-9.81-21.27-21.7-20.74-11.21,.49-19.82,10.18-19.82,21.39v10.3c0,2.53-2.05,4.57-4.57,4.57h-54.71c-3.27,0-5.49-3.33-4.22-6.35l19.82-47.1c.17-.35,.53-.57,.91-.57h3.83c.62,0,1.12-.5,1.12-1.11v-9.81c0-.38-.2-.74-.52-.94l-13.47-8.48c-.8-.5-.56-1.72,.37-1.87,4.43-.72,13.41-5.9,20.88-10.9,.31-.21,.5-.56,.5-.94v-9.22c0-.38-.2-.74-.52-.94l-13.47-8.48c-.8-.5-.56-1.72,.37-1.87,5.1-.82,16.21-6.04,24.12-13.29,.63-.58,1.35-1.03,2.11-1.39v-3.95c0-2.13,1.59-4.04,3.72-4.15,2.27-.12,4.14,1.68,4.14,3.93v3.33h0c6.2,0,11.23-5.03,11.23-11.23v-3.34c0-33.22-27.56-59.24-62.73-59.24-2.51,0-4.76,.22-7.57,.57-7.63,.95-13.38,7.47-13.38,15.15l-.03,164.07c.5,33.77,28.24,61.24,61.85,61.24,15.33,0,29.8-5.64,40.92-15.56,11.11,9.92,25.59,15.56,40.92,15.56,33.63,0,61.36-27.5,61.82-61.45l.16-163.87c.01-7.65-5.7-14.17-13.28-15.16Z"/></g></g></g><g id="c"/></svg>