<svg width="40" height="40" viewBox="0 0 40 40" fill="none" xmlns="http://www.w3.org/2000/svg">
<path d="M20 0C8.95412 0 0 8.95412 0 20C0 31.0459 8.95412 40 20 40C31.0459 40 40 31.0459 40 20C40 8.95412 31.0445 0 20 0ZM11.1806 19.888L8.14295 21.7315C7.95575 21.845 7.75722 21.6068 7.90187 21.4437C8.54995 20.7162 9.43062 19.7504 9.96667 19.2484C10.5722 18.6811 10.9736 18.6953 11.2331 18.8825C11.5805 19.1335 11.5465 19.6653 11.1792 19.888H11.1806ZM22.859 27.8848C21.2168 28.7343 20.7077 27.0921 19.8582 25.9604C19.0087 24.8273 18.1593 24.9408 16.1214 25.847C15.1797 26.2653 14.2849 26.1037 13.5971 25.8087C13.1461 25.6158 13.2128 24.9592 13.695 24.8671C14.3033 24.7508 14.9486 24.5324 15.4435 24.2048C15.764 23.9921 19.8653 19.5547 21.5231 17.7026C21.9117 17.2687 22.5739 17.2275 23.015 17.6076C23.3695 17.9139 23.4829 18.4145 23.2943 18.8428C22.8973 19.7419 22.2988 21.2324 22.4661 21.7131C22.6774 22.3229 24.504 27.0354 22.8618 27.8848H22.859ZM33.4397 22.2378C33.4993 21.143 32.654 20.1758 31.528 20.1049H31.5266C31.1423 20.0794 30.7041 20.0496 30.2035 20.0142C29.9638 19.9972 29.7029 19.8043 29.4703 19.5689C29.4377 19.5363 26.7092 16.5951 24.9294 14.6777C24.1197 13.8042 22.737 13.807 21.9315 14.6834L16.8517 20.2C16.293 20.8069 15.3272 20.78 14.8011 20.1432L12.7278 17.6275C11.9762 16.6234 10.4701 16.6234 9.71708 17.6275L6.45111 21.4224C6.40289 20.9544 6.37737 20.4793 6.37737 19.9986C6.37737 12.4739 12.4768 6.37453 20.0014 6.37453C27.5261 6.37453 33.6255 12.4739 33.6255 19.9986C33.6255 20.7615 33.5617 21.5089 33.4411 22.2364L33.4397 22.2378Z" fill="#212121"/>
</svg>
