<?xml version="1.0" encoding="UTF-8"?><svg id="a" xmlns="http://www.w3.org/2000/svg" xmlns:xlink="http://www.w3.org/1999/xlink" viewBox="0 0 400 399.95"><defs><style>.c{fill:#fff;}.d{fill:#ffbe2c;}.e{fill:#dd1d3f;}.f{fill:#0d1e42;}.g{clip-path:url(#b);}</style><clipPath id="b"><ellipse class="d" cx="200" cy="199.98" rx="199.96" ry="199.94"/></clipPath></defs><g><ellipse class="d" cx="200" cy="199.98" rx="199.96" ry="199.94"/><g class="g"><ellipse class="e" cx="200" cy="199.98" rx="199.96" ry="199.94"/><path class="f" d="M331.41,49.27C285.65,9.44,222.37-9.17,158.45,4.41,50.43,27.35-18.54,133.51,4.41,241.52c4.2,19.75,11.18,38.19,20.45,55C214.12,219.58,297.71,110.04,331.41,49.27Z"/></g></g><g><g><path class="c" d="M175.23,227.08c-1.73,0-3.45,.01-5.18,0-1.78-.02-2.48-.71-2.49-2.46-.02-2.92-.03-5.84,0-8.76,.05-4.42,3.5-8.04,7.67-8.1,4.39-.06,7.79,3.28,7.93,7.89,.09,2.92,.04,5.84,0,8.76-.03,1.94-.79,2.65-2.75,2.67-1.73,.02-3.45,0-5.18,0Z"/><path class="c" d="M150.56,227.08c-1.77,0-3.54,.02-5.3,0-1.66-.03-2.4-.77-2.41-2.45-.02-2.96-.05-5.92,0-8.88,.09-4.43,3.69-8.03,7.92-7.99,4.31,.03,7.62,3.46,7.68,8,.04,2.88,.02,5.76,0,8.64-.01,1.92-.78,2.65-2.73,2.69-.08,0-.16,0-.25,0-1.64,0-3.29,0-4.93,0Z"/><path class="c" d="M199.93,227.08c-1.77,0-3.54,.03-5.31,0-1.63-.03-2.34-.75-2.35-2.36-.02-3.09-.07-6.18,.02-9.27,.12-4.11,3.52-7.56,7.44-7.69,4.23-.14,7.58,2.81,8.01,7.11,.32,3.24,.16,6.5,.1,9.75-.03,1.76-.8,2.41-2.59,2.45-1.77,.04-3.54,0-5.31,.01Z"/><path class="c" d="M249.34,227.08c-1.81,0-3.63,.03-5.44-.01-1.42-.03-2.27-.71-2.3-2.07-.09-3.45-.37-6.93,.15-10.36,.52-3.44,2.57-5.76,5.98-6.66,2.99-.79,6.19,.49,8.04,3.08,.86,1.2,1.35,2.56,1.36,4.04,.03,3.21,.03,6.43,0,9.64-.01,1.6-.74,2.32-2.37,2.35-1.81,.03-3.63,0-5.44,0Z"/><path class="c" d="M224.64,227.08c-1.69,0-3.38,.02-5.06,0-1.95-.03-2.61-.69-2.61-2.6,0-2.96-.05-5.93,.02-8.89,.13-5.82,5.86-9.47,11.12-7.03,2.62,1.21,4.18,3.38,4.31,6.29,.14,3.29,.06,6.59,.04,9.88,0,1.57-.66,2.27-2.25,2.32-1.85,.06-3.7,.01-5.56,.01v.02Z"/><path class="c" d="M199.86,192.97c-4.66,0-9.31,.01-13.97,0-3.15,0-4.4-1.72-3.51-4.76,2.32-7.9,9.38-13.27,17.52-13.32,8.06-.05,15.21,5.22,17.65,13.01,.09,.27,.17,.55,.23,.83,.57,2.58-.68,4.21-3.34,4.23-4.86,.03-9.72,0-14.58,.01Z"/><path class="c" d="M188.63,161.39c-1.44,0-2.88,.02-4.32,0-1.67-.02-2.56-.83-2.6-2.46-.05-2.22-.05-4.44,0-6.66,.04-1.68,.85-2.53,2.52-2.56,3-.05,6-.05,9,0,1.55,.03,2.39,.78,2.46,2.35,.1,2.34,.1,4.69-.02,7.02-.08,1.62-.96,2.28-2.62,2.3-1.48,.02-2.96,0-4.44,0h0Z"/><path class="c" d="M212.28,161.39c-1.48,0-2.97,.02-4.45,0-1.63-.02-2.54-.77-2.6-2.34-.09-2.34-.08-4.7,0-7.04,.05-1.4,.89-2.24,2.3-2.27,3.13-.07,6.26-.07,9.39,0,1.38,.03,2.18,.76,2.24,2.16,.11,2.46,.11,4.94,.01,7.4-.05,1.32-.97,2.04-2.32,2.08-1.52,.04-3.05,0-4.57,0h0Z"/></g><path class="c" d="M289.56,80.01c-2.57-.34-5.14-.51-7.76-.52-17.29,0-33.97,6.76-45.77,18.53-7.15,7.13-12.19,15.78-14.84,25.19-.85,3.02-.3,6.23,1.26,8.95,.18,.32,.36,.65,.54,.99,.98,1.91,1.65,3.92,2,6.01,.16,.93,.58,1.32,1.58,1.26,1.29-.07,2.6-.04,3.89,0,1.67,.05,2.76,.95,2.91,2.31,.15,1.32-.81,2.49-2.42,2.76-.8,.14-1.04,.48-1.03,1.21,.01,7.36,.02,14.72,0,22.09,0,.94,.44,1.18,1.31,1.17,3.81-.02,7.62-.01,11.43,0,2.94,0,3.82,.86,3.82,3.71,0,2.24,.04,4.48-.02,6.71-.03,1.11,.36,1.71,1.67,2.15,8.26,2.78,16.21,6.29,23.8,10.56,1.41,.79,2.96,1.35,4.4,2.09,1.04,.54,1.48,1.42,1.31,2.54-.17,1.16-.83,1.98-2.07,2.13-1.03,.12-2.09,.13-3.13,.14-.74,0-1.08,.32-1.04,1.04,.02,.28,0,.57,0,.85,0,18.26,0,36.53,0,54.79q0,2.04,2.16,2.04c.96,0,1.93-.03,2.89,.02,1.44,.08,2.44,1.1,2.46,2.44,.02,1.27-.92,2.32-2.28,2.51-.54,.07-1.09,.04-1.63,.04-20.59,0-41.18,0-61.78,0v-14.36c0-1.29-.56-2.51-1.54-3.35l-8.79-7.57c-1.71-1.47-4.26-1.42-5.91,.13l-8.83,8.31c-.89,.83-1.39,2-1.39,3.22v13.62c-20.64,0-41.28,0-61.92,0-.46,0-.93,.02-1.38-.03-1.47-.17-2.49-1.34-2.37-2.67,.12-1.39,1.23-2.34,2.71-2.33,1.21,0,2.43-.01,3.64,.03,.79,.03,1.19-.25,1.14-1.05-.02-.28,0-.57,0-.85,0-17.61,0-35.23,0-52.84q0-1.75-1.8-1.75c-.63,0-1.26,.03-1.88,0-1.31-.05-2.23-.73-2.52-1.82-.3-1.15,.24-2.38,1.42-2.97,2.65-1.31,5.33-2.56,7.99-3.84,6.84-3.27,13.67-6.55,20.52-9.79,.89-.42,1.21-.96,1.19-1.89-.05-2.81-.02-5.61,0-8.42,.01-2.62,.95-3.54,3.62-3.54,4.1,0,8.21-.03,12.31,.02,1.15,.01,1.63-.27,1.63-1.49-.05-7.16-.04-14.32-.01-21.48,0-.89-.14-1.4-1.22-1.56-1.5-.22-2.36-1.38-2.25-2.65,.12-1.29,1.12-2.27,2.61-2.35,1.42-.08,2.85-.06,4.27-.03,.83,.02,1.27-.19,1.45-1.08,.49-2.34,1.23-4.49,2.22-6.45,1.27-2.53,1.75-5.4,1.07-8.15-6.49-26.27-30.99-45.28-61.05-45.28-2.51,0-4.76,.22-7.57,.57-7.63,.95-13.38,7.47-13.38,15.15l-.03,164.11c.5,33.78,28.24,61.25,61.86,61.25,15.33,0,29.81-5.64,40.92-15.57,11.12,9.93,25.59,15.57,40.92,15.57,33.63,0,61.37-27.5,61.83-61.46l.16-163.9c.01-7.66-5.7-14.18-13.28-15.17Z"/></g></svg>