<?xml version="1.0" encoding="UTF-8"?>
<svg id="a" xmlns="http://www.w3.org/2000/svg" viewBox="0 0 1080 1080.01">
  <defs>
    <style>
      .cls-1 {
        fill: #8d8d8d;
      }

      .cls-2 {
        fill: #656565;
      }

      .cls-3 {
        fill: #e8e8e8;
        stroke: #e8e8e8;
      }

      .cls-3, .cls-4, .cls-5 {
        stroke-miterlimit: 10;
      }

      .cls-4 {
        fill: #ddd;
        stroke: #ddd;
      }

      .cls-5 {
        fill: none;
        stroke: #b6b6b6;
        stroke-width: 4.31px;
      }

      .cls-6 {
        fill: #c8c8c8;
      }
    </style>
  </defs>
  <g>
    <g>
      <path class="cls-5" d="M863.98,216.02c.45.05.93.13,1.4.2l-1.6-1.6c.07.47.15.94.2,1.4h0ZM216.03,863.97c-.45-.05-.89-.13-1.34-.18l1.52,1.52c-.05-.45-.13-.89-.18-1.34h0Z"/>
      <path class="cls-4" d="M216.03,863.97c.05.45.13.89.18,1.34,179.32,178.49,469.35,178.23,648.35-.76,178.98-178.98,179.27-469.01.82-648.33-.47-.07-.94-.15-1.4-.2,23.05,171.9-31.49,352.2-163.62,484.33s-312.41,186.66-484.33,163.62h0Z"/>
      <path class="cls-3" d="M863.98,216.02c-.06-.45-.13-.93-.2-1.4-179.32-178.45-469.37-178.18-648.35.8-179,179-179.23,469.04-.74,648.37.45.05.89.13,1.34.18,171.92,23.03,352.22-31.51,484.33-163.62s186.67-312.43,163.62-484.33Z"/>
    </g>
    <circle class="cls-6" cx="540.01" cy="539.99" r="339.67"/>
    <path class="cls-4" d="M567.71,574.51h-258.37c-16.37,0-28.15,21.9-23.37,43.6,8.01,36.39,34.02,88.74,78.53,129.64,76.08,69.92,183.25-32.01,183.25-32.01l19.96-141.24h0Z"/>
    <path class="cls-3" d="M775.09,436.24h-58.49c0,34.08-24.35,53.38-53.21,53.38s-53.74-16.32-53.74-53.38h-64.61c-16.49,0-30.53,17.02-32.39,39.72-17.28,210.84-142.69,275.99-142.69,275.99,81.57,66.14,235.97,79.37,333.63-1.8,105.99-88.08,106.08-180.59,103.55-260.01-.89-27.99-11.5-53.89-32.05-53.89h0Z"/>
    <path class="cls-6" d="M537.53,530.89h45.23c5.57,0,10.08,4.51,10.08,10.08h0c0,5.57-4.51,10.08-10.08,10.08h-45.23c-5.57,0-10.08-4.51-10.08-10.08h0c0-5.57,4.51-10.08,10.08-10.08Z"/>
    <path class="cls-6" d="M634.01,530.89h45.23c5.57,0,10.08,4.51,10.08,10.08h0c0,5.57-4.51,10.08-10.08,10.08h-45.23c-5.57,0-10.08-4.51-10.08-10.08h0c0-5.57,4.51-10.08,10.08-10.08Z"/>
    <path class="cls-6" d="M730.49,530.89h45.23c5.57,0,10.08,4.51,10.08,10.08h0c0,5.57-4.51,10.08-10.08,10.08h-45.23c-5.57,0-10.08-4.51-10.08-10.08h0c0-5.57,4.51-10.08,10.08-10.08Z"/>
  </g>
  <g>
    <path class="cls-1" d="M529.94,1079.43C232.24,1073.89-5.45,827.33.1,529.83,5.65,232.32,252.37-5.21,550.07.34c297.7,5.55,535.39,252.1,529.84,549.6-5.55,297.5-252.27,535.03-549.97,529.49h0ZM548.43,88.43c-249.1-4.64-455.21,194.11-460.18,443.04-5.28,264.33,194.24,455.23,443.33,459.87,249.1,4.64,455.97-194.1,460.18-443.04,4.31-254.74-194.24-455.23-443.33-459.87h0Z"/>
    <path class="cls-2" d="M529.9,1079.89c-246.73-4.6-446.39-158.01-508.65-390.85-6.28-23.5,7.69-47.65,31.21-53.93,23.52-6.29,47.68,7.68,53.97,31.19,62.99,235.59,268.38,322.59,425.12,325.51,17.92.33,36.03-.33,53.83-1.97,24.23-2.22,45.71,15.59,47.95,39.82,2.24,24.23-15.6,45.68-39.84,47.92-21.03,1.94-42.42,2.72-63.58,2.33v-.02ZM1029.05,506.22c-20.99-.39-39.31-15.78-42.67-37.22-34.01-216.6-218.19-376.79-437.95-380.88h-.34c-24.19-.46-44.4-20.33-44.14-44.54C504.22,19.25,523.28-.26,547.63,0c.06,0,1.17.02,1.23.02s1.17.02,1.23.02c262.62,4.89,482.74,196.38,523.4,455.32,3.77,24.03-12.67,46.57-36.72,50.35-2.59.4-5.17.58-7.71.53v-.02Z"/>
  </g>
</svg>