<?xml version="1.0" encoding="UTF-8"?><svg id="a" xmlns="http://www.w3.org/2000/svg" xmlns:xlink="http://www.w3.org/1999/xlink" viewBox="0 0 400 399.95"><defs><style>.c{fill:#fff;}.d{fill:#ffbe2c;}.e{fill:#ffc200;}.f{fill:#de2810;}.g{clip-path:url(#b);}</style><clipPath id="b"><ellipse class="d" cx="200" cy="199.98" rx="199.96" ry="199.94"/></clipPath></defs><g><ellipse class="d" cx="200" cy="199.98" rx="199.96" ry="199.94"/><g class="g"><ellipse class="f" cx="200" cy="199.98" rx="199.96" ry="199.94"/><path class="e" d="M331.41,49.27C285.65,9.44,222.37-9.17,158.45,4.41,50.43,27.35-18.54,133.51,4.41,241.52c4.2,19.75,11.18,38.19,20.45,55C214.12,219.58,297.71,110.04,331.41,49.27Z"/></g></g><g><path class="c" d="M191.76,230.06c-1.2-.4-1.75,.58-2.33,1.3-2.18,2.68-4.29,5.4-6.47,8.09-4.34,5.35-8.69,10.69-13.29,16.34-.92,1.13-.07,2.78,1.43,2.78,6.83,0,13.23,0,19.64,.01,1.6,0,1.9-.85,1.9-2.13-.02-8.06,0-16.12-.02-24.19,0-.81,.24-1.84-.85-2.2Z"/><path class="c" d="M217.62,239.45c-2.17-2.68-4.29-5.4-6.47-8.09-.58-.71-1.13-1.7-2.33-1.3-1.09,.36-.85,1.39-.85,2.2-.02,8.06,0,16.12-.02,24.19,0,1.28,.3,2.14,1.9,2.13,6.4-.02,12.81-.01,19.64-.01,1.5,0,2.35-1.65,1.43-2.78-4.6-5.65-8.95-10.99-13.29-16.34Z"/><path class="c" d="M289.56,80.01c-2.57-.34-5.14-.51-7.76-.52-17.29,0-33.97,6.76-45.77,18.53-5.37,5.35-10.99,11.56-15.34,18.3-1.65,2.55-2.04,5.69-1.27,8.63,.42,1.62,.65,3.31,.65,5.06,0,5.72-2.4,10.86-6.24,14.52-.53,.5-.81,1.21-.81,1.94v12.85c0,1.01,.55,1.96,1.45,2.42,7.24,3.69,12.89,10.04,15.64,17.77,.7,1.95-.79,4-2.86,4h-54.53c-2.07,0-3.56-2.05-2.86-4,2.76-7.77,8.44-14.15,15.72-17.83,.91-.46,1.46-1.41,1.46-2.42v-12.7c0-.73-.28-1.45-.82-1.95-3.88-3.66-6.31-8.83-6.31-14.59,0-2.37,.41-4.64,1.16-6.75,1.07-2.99,1-6.29-.54-9.06-11.46-20.67-36.53-34.75-62.41-34.75-2.51,0-4.76,.22-7.57,.57-7.63,.95-13.38,7.47-13.38,15.15l-.03,164.11c.5,33.78,28.24,61.25,61.86,61.25,14.54,0,28.32-5.08,39.19-14.07,1-.83,2.46-.83,3.47,0,10.87,9,24.64,14.07,39.19,14.07,33.63,0,61.37-27.5,61.83-61.46l.16-163.9c.01-7.66-5.7-14.18-13.28-15.17Zm-25.22,191.45c-.94,4.86-3.3,7.04-8.01,7.06-18.13,.08-36.26,.09-54.39,.12-.67,0-1.34,0-2.01,0v-.08c-18.58,0-37.16,.02-55.74,0-6.14,0-8.84-3.17-8.81-10.17,.03-6.29,2.41-9.69,7.49-9.92,4.18-.19,8.1-2.06,10.58-5.43,8.49-11.52,17.24-22.85,25.97-34.18,.14-.18,.26-.34,.38-.51,.83-1.15,.63-2.75-.45-3.67-1.4-1.19-2.71-2.49-3.89-3.9-3.07-3.23-5.47-7.04-7.18-11.17-.82-1.97,.68-4.13,2.81-4.13h57.87c2.08,0,3.57,2.07,2.85,4.03-2.23,6.06-5.85,11.38-11.23,15.31-2.11,1.54-2.14,2.59-.62,4.57,8.87,11.54,17.67,23.13,26.41,34.76,1.97,2.62,5.06,4.17,8.35,4.14,.86,0,1.72,.04,2.58,.09,.88,.05,1.82,.11,2.63,.43,3.48,1.39,5.47,7.2,4.41,12.65Z"/></g></svg>