<?xml version="1.0" encoding="UTF-8"?><svg id="a" xmlns="http://www.w3.org/2000/svg" xmlns:xlink="http://www.w3.org/1999/xlink" viewBox="0 0 400 399.95"><defs><style>.c{fill:#fff;}.d{fill:#ffbe2c;}.e{fill:#c10e05;}.f{fill:#d52b1e;}.g{clip-path:url(#b);}</style><clipPath id="b"><ellipse class="d" cx="200" cy="199.98" rx="199.96" ry="199.94"/></clipPath></defs><g><ellipse class="d" cx="200" cy="199.98" rx="199.96" ry="199.94"/><g class="g"><ellipse class="f" cx="200" cy="199.98" rx="199.96" ry="199.94"/><path class="e" d="M331.41,49.27C285.65,9.44,222.37-9.17,158.45,4.41,50.43,27.35-18.54,133.51,4.41,241.52c4.2,19.75,11.18,38.19,20.45,55C214.12,219.58,297.71,110.04,331.41,49.27Z"/></g></g><path class="c" d="M289.56,80.01c-2.57-.34-5.14-.51-7.76-.52-17.29,0-33.97,6.76-45.77,18.53-.47,.46-.93,.93-1.38,1.41-8.05,8.42-11.85,19.91-11.34,31.55,.16,3.72-.25,7.66-1.42,10.59-.25,.62-.5,1.23-.76,1.87,5.24,1.56,7.36,3.7,6.9,7.46-.79,6.53-6.26,6.23-11.01,6.26l.91,39.79,2.5,43.06h23.86c1.94,0,3.52,1.57,3.52,3.52v8.95c0,1.94-1.57,3.52-3.52,3.52h-3.49c-3.13,6.65-5.71,12.94-7.39,18.66-.48,1.63-1.97,2.76-3.67,2.76h-59.29c-1.75,0-3.29-1.18-3.7-2.87-1.36-5.65-3.96-11.92-7.27-18.54h-3.78c-1.94,0-3.52-1.57-3.52-3.52v-8.95c0-1.94,1.57-3.52,3.52-3.52h23.8l2.76-47.77,.92-35.13c-1.61,0-3.34,.03-4.55-.01-3.88-.12-6.53-2.59-6.72-6.21-.2-3.68,2.06-6.35,5.93-7.02,.24-.04,.48-.12,1-.24-.29-.81-.53-1.58-.83-2.32-1.18-2.99-1.43-6.74-1.1-10.39,1.32-14.63-5.31-28.93-17.07-37.74-11.47-8.59-26.11-13.71-41.7-13.71-2.51,0-4.76,.22-7.57,.57-7.63,.95-13.38,7.47-13.38,15.15l-.03,164.11c.5,33.78,28.24,61.25,61.86,61.25,15.33,0,29.81-5.64,40.92-15.57,11.12,9.93,25.59,15.57,40.92,15.57,33.63,0,61.37-27.5,61.83-61.46l.16-163.9c.01-7.66-5.7-14.18-13.28-15.17Z"/><path class="c" d="M197.95,111c-3.68,4.06-6.84,8.72-8.99,14.51-1.6,4.33-1.8,8.78-.43,13.31,.02,.08,.05,.17,.08,.26,.22,.78,.88,1.31,1.61,1.31l19.59-.11c.72,0,1.35-.51,1.59-1.27h0c1.36-4.45,1.29-8.86-.26-13.17-2.15-5.99-5.4-10.79-9.21-14.92-1.21-1.31-2.78-1.27-4,.07Z"/></svg>