<?xml version="1.0" encoding="UTF-8"?><svg id="a" xmlns="http://www.w3.org/2000/svg" xmlns:xlink="http://www.w3.org/1999/xlink" viewBox="0 0 400 399.95"><defs><style>.c{fill:#006;}.d{fill:#fff;}.e{fill:#ffbe2c;}.f{fill:#c00;}.g{clip-path:url(#b);}</style><clipPath id="b"><ellipse class="e" cx="200" cy="199.98" rx="199.96" ry="199.94"/></clipPath></defs><g><ellipse class="e" cx="200" cy="199.98" rx="199.96" ry="199.94"/><g class="g"><ellipse class="f" cx="200" cy="199.98" rx="199.96" ry="199.94"/><path class="c" d="M331.41,49.27C285.65,9.44,222.37-9.17,158.45,4.41,50.43,27.35-18.54,133.51,4.41,241.52c4.2,19.75,11.18,38.19,20.45,55C214.12,219.58,297.71,110.04,331.41,49.27Z"/></g></g><g><path class="d" d="M289.56,80.01c-2.57-.34-5.14-.51-7.76-.52-17.29,0-33.97,6.76-45.77,18.53-10.95,10.93-16.98,25.39-16.98,40.73l-.35,48.77c-.03,3.74,5.32,4.88,6.57,1.36,.05-.15,.1-.31,.13-.47,.1-.81,.15-1.79,.19-2.98-.11-1.86-.12-3.73-.11-5.6-.36-4.28-1.09-8.72,.48-12.2,.39-1.67,1.14-3.24,2.61-4.68,2.64-5.86,.87-11.74,1.84-17.84,.28-2.53,1.01-4.86,2.21-7.04,1.27-2.58,3.01-4.99,5.3-7.22,.54-.52,1.01-1.06,1.45-1.62,1.11-1.66,2.04-3.4,2.74-5.23,.63-1.96,.95-4.01,1.13-6.12,.11-1.31,.94-2.53,2.19-2.94,2.14-.7,4.21,.77,4.36,2.83,.44,6.01,3.13,11.12,7.4,15.59,4.7,4.93,6.28,11.41,5.55,18.06-.08,3.44,.14,6.8,1.33,10.15,1.37,1.73,2.22,3.51,2.76,5.32,2.41,4.12,.9,9.88,.73,15.11v.17c.25,3.59-.42,7.34,2.17,9.98,.48,.43,1.07,.84,1.8,1.19,.39,.19,.71,.43,.98,.71,1.05,.84,1.36,2.53,1.27,3.99,.02,.5,.02,1,.02,1.48,.02,23.03-.02,41.21,.04,64.24,0,.31,0,.61-.02,.9,.2,4.29-1.95,6.47-6.32,6.65-.36,.02-.73,.03-1.13,.03-2.72-.04-5.43-.07-8.15-.09-8.29-.03-16.59,.04-24.88,.04-.62,0-1.2,0-1.76,0-1.59,.02-3.18,.03-4.77,.05-5.43,.08-7.61-2.3-7.55-7.5,.06-5.4-.07-5.97-.04-11.37-.25-8.15-1.26-11.85-5.36-16.45-3.64-3.14-7.17-6.41-10.54-9.82-1.37-1.38-2.64-2.06-3.87-2.1-1.24,.03-2.51,.72-3.87,2.1-3.37,3.41-6.91,6.68-10.55,9.82-4.1,4.59-5.11,8.29-5.36,16.45,.03,5.4-.11,5.97-.04,11.37,.06,5.2-2.12,7.58-7.55,7.5-1.59-.02-3.18-.04-4.77-.05-.56,0-1.14,0-1.76,0-8.29,0-16.59-.08-24.88-.04-2.72,.02-5.43,.05-8.15,.09-.4,0-.77,0-1.13-.03-4.36-.19-6.51-2.36-6.32-6.65-.01-.29-.02-.59-.02-.9,.06-23.03,.02-41.21,.04-64.24,0-.48,0-.98,.02-1.48-.09-1.45,.22-3.14,1.27-3.99,.27-.28,.59-.52,.98-.71,.73-.35,1.32-.75,1.8-1.19,2.59-2.63,1.91-6.39,2.16-9.98v-.17c-.16-5.23-1.67-11,.74-15.11,.53-1.81,1.39-3.6,2.76-5.33,1.19-3.34,1.4-6.7,1.32-10.14-.06-.51-.11-1-.15-1.47-.61-6.51,1.26-11.93,5.7-16.58,4.23-4.43,6.91-9.48,7.39-15.41,.13-1.65,1.41-3.07,3.06-3.18,1.81-.12,3.35,1.23,3.5,3.01,.18,2.14,.5,4.23,1.14,6.21,.69,1.83,1.63,3.57,2.74,5.23,.44,.55,.91,1.09,1.45,1.62,2.29,2.23,4.03,4.64,5.3,7.22,1.2,2.17,1.93,4.51,2.21,7.04,.43,2.7,.47,5.55,.13,8.54-.04,.38-.09,.76-.14,1.16,.14,2.74,.64,5.44,1.86,8.15,1.46,1.43,2.22,3,2.6,4.67,1.57,3.49,.84,7.92,.48,12.21-.23,2.66-.27,5.84,.08,8.58,.26,1.17,1.31,2.16,2.83,2.83,2.27,1,4.82-.67,4.81-3.15l-.26-49.38c0-33.22-27.56-59.25-62.74-59.25-2.51,0-4.76,.22-7.57,.57-7.63,.95-13.38,7.47-13.38,15.15l-.03,164.11c.5,33.78,28.24,61.25,61.86,61.25,15.32,0,29.79-5.63,40.9-15.55,.01-.01,.03-.01,.05,0,11.11,9.91,25.58,15.55,40.9,15.55,33.63,0,61.37-27.5,61.83-61.46l.16-163.9c.01-7.66-5.7-14.18-13.28-15.17Z"/><g><rect class="d" x="177.92" y="200.3" width="43.78" height="11.91" rx="4.44" ry="4.44"/><rect class="d" x="130.35" y="174.08" width="26.54" height="8.45" rx="2.91" ry="2.91" transform="translate(321.92 34.68) rotate(90)"/><rect class="d" x="147.52" y="174.08" width="26.54" height="8.45" rx="2.91" ry="2.91" transform="translate(339.1 17.51) rotate(90)"/><rect class="d" x="224.66" y="174.08" width="26.54" height="8.45" rx="2.91" ry="2.91" transform="translate(416.23 -59.63) rotate(90)"/><rect class="d" x="241.83" y="174.08" width="26.54" height="8.45" rx="2.91" ry="2.91" transform="translate(433.4 -76.8) rotate(90)"/></g></g></svg>