<?xml version="1.0" encoding="UTF-8"?><svg id="a" xmlns="http://www.w3.org/2000/svg" xmlns:xlink="http://www.w3.org/1999/xlink" viewBox="0 0 400 399.95"><defs><style>.c{fill:#fff;}.d{fill:#ffbe2c;}.e{fill:#c10e05;}.f{fill:#d52b1e;}.g{clip-path:url(#b);}</style><clipPath id="b"><ellipse class="d" cx="200" cy="199.98" rx="199.96" ry="199.94"/></clipPath></defs><g><ellipse class="d" cx="200" cy="199.98" rx="199.96" ry="199.94"/><g class="g"><ellipse class="f" cx="200" cy="199.98" rx="199.96" ry="199.94"/><path class="e" d="M331.41,49.27C285.65,9.44,222.37-9.17,158.45,4.41,50.43,27.35-18.54,133.51,4.41,241.52c4.2,19.75,11.18,38.19,20.45,55C214.12,219.58,297.71,110.04,331.41,49.27Z"/></g></g><g><path class="c" d="M151.16,161.17c0,4.59,.03,9.19-.02,13.78-.01,1.16,.38,1.66,1.61,1.61,1.48-.06,2.97-.11,4.44,.01,1.72,.15,2.12-.55,2.11-2.12-.07-8.44-.11-16.88,.02-25.31,.04-2.17-.58-3.44-2.62-4.35-2.2-.98-5.54,.74-5.55,3.09-.01,4.43,0,8.87,0,13.3Z"/><path class="c" d="M166.27,161.18h0c0,4.49,.05,8.98-.03,13.47-.03,1.49,.52,2.01,2.01,1.91,1.37-.09,2.75-.11,4.11,0,1.6,.13,2.07-.47,2.05-2-.07-8.39-.15-16.79,.04-25.18,.05-2.42-.76-3.74-2.91-4.7-2.04-.91-5.27,.84-5.27,3.02-.02,4.49,0,8.98,0,13.47Z"/><path class="c" d="M171.5,134.74c-.52-5.63-3.86-9.66-8.13-13.13-.7-.57-1.22-.08-1.72,.35-2.21,1.93-4.23,4.03-5.72,6.56-1.28,2.17-2.04,4.48-1.88,7.02,.03,.45-.15,1.19,.49,1.19,2.51-.02,4.28,1.58,6.19,2.71,1.56,.92,2.71,.82,4.15-.09,1.55-.98,3.05-2.33,4.92-2.46,1.7-.12,1.86-.84,1.69-2.15Z"/><path class="c" d="M226.72,161.17c0,4.59,.02,9.19-.02,13.78-.01,1.17,.41,1.65,1.63,1.6,1.37-.06,2.74,0,4.11,0q2.39,0,2.39-2.27c0-8.39-.09-16.77,.06-25.16,.04-2.18-.62-3.43-2.64-4.34-2.21-1-5.53,.72-5.53,3.09-.01,4.43,0,8.87,0,13.3Z"/><path class="c" d="M241.82,161.2c0,4.54,.03,9.08-.02,13.62-.02,1.33,.48,1.83,1.83,1.75,1.42-.08,2.86-.1,4.27,0,1.57,.12,2.09-.42,2.07-1.98-.07-8.44-.12-16.88,.03-25.31,.04-2.24-.66-3.53-2.7-4.49-2.28-1.07-5.48,.63-5.49,3.11-.02,4.43,0,8.86,0,13.3Z"/><path class="c" d="M229.6,134.77c-.09,.64-.51,1.86,.53,1.92,2.73,.15,4.57,1.96,6.77,3.07,1.08,.55,1.83,.53,2.84-.04,1.75-.98,3.36-2.58,5.33-2.73,2.22-.17,2.08-1.28,1.95-2.69-.05-.58-.12-1.17-.26-1.73-1.06-4.16-3.67-7.34-6.83-10.15-1.64-1.45-1.68-1.42-3.33,.11-.79,.74-1.6,1.46-2.31,2.27-2.49,2.84-4.09,5.91-4.68,9.97Z"/><path class="c" d="M289.56,80.01c-2.57-.34-5.14-.51-7.76-.52-17.29,0-33.97,6.76-45.77,18.53-10.68,10.66-17.42,25.25-16.43,40.13,.06,.88,.38,1.55,1.55,1.79,.35,.07,.99-.23,.99-.73,0-2.19-.19-4.15,.13-6.34,1.01-6.95,5.17-12.04,10.45-16.37,4.79-3.93,5.38-3.86,10.2,.05,4.87,3.95,8.67,8.62,10.13,14.8,.61,2.59,.49,5.21,.47,7.83-.01,1.03,.17,1.84,1.17,2.44,1.24,.74,1.54,1.93,1.54,3.33-.04,9.84,.02,19.68-.05,29.52-.01,1.6,.43,2.28,2.13,2.1,.92-.1,1.87-.06,2.79,.04,1.76,.21,2.97,1.41,3.15,3.01,.18,1.56-.77,3.06-2.52,3.48-1.28,.31-1.61,.9-1.6,2.11,.05,9.04,.03,18.08,.01,27.12,0,1.03,.17,1.65,1.42,1.86,1.62,.28,2.56,1.42,2.72,3.03,.15,1.49-.84,2.96-2.51,3.35-1.39,.32-1.65,1.03-1.64,2.27,.04,9.63,.05,19.25,0,28.88,0,1.42,.45,1.84,1.89,1.82,4.56-.07,9.12-.05,13.67,0,2.13,.02,3.52,1.33,3.55,3.22,.04,1.95-1.38,3.28-3.58,3.36-.55,.02-1.1,0-1.65,0-15.56,0-31.12,.04-46.67,0-1.5,0-2.72-1.23-2.72-2.73v-14.14c0-1.89-.59-3.74-1.7-5.38l-19.74-25.58c-1.43-2.08-4.94-2.08-6.37,0l-19.74,25.58c-1.11,1.63-1.7,3.49-1.7,5.38v14.18c0,1.51-1.22,2.72-2.73,2.72-15.8-.03-31.59-.02-47.39-.02-.16,0-.33,0-.49,0-2.53-.03-4-1.22-4.02-3.26-.02-2.06,1.45-3.31,3.94-3.33,3.19-.02,6.37,0,9.56,0,1.59,0,3.19-.04,4.78,0,1.4,.04,1.03-.69,1.34-2.62l.04-27.8c.22-1.51-.03-2.09-1.17-2.41-1.96-.54-2.98-1.78-2.95-3.36,.03-1.53,1.14-2.77,3.12-3.22,.83-.19,1.07-.57,1.07-1.31,0-9.41-.01-18.83,0-28.24,0-.61-.42-1.12-1.01-1.27-2.29-.6-3.42-2.01-3.17-3.76,.26-1.79,1.83-2.95,4.06-2.99q3.87-.07,3.87-3.91c0-8.71,0-17.43,0-26.14,0-2.12-.02-4.22,2.36-5.38,.62-.3,.49-1.02,.51-1.6,.08-2.24-.17-4.49,.17-6.73,1.05-6.94,5.23-12.01,10.51-16.34,4.65-3.81,5.28-3.77,9.95-.03,4.53,3.63,8.14,7.93,9.92,13.5,.93,2.92,.83,5.91,.83,8.9,0,.98,.45,1.33,.99,1.39,.98,.12,1.83-.74,1.81-1.73-.71-32.63-28.42-59.01-63.14-59.01-2.51,0-4.76,.22-7.57,.57-7.63,.95-13.38,7.47-13.38,15.15l-.03,164.11c.5,33.78,28.24,61.25,61.86,61.25,15.33,0,29.81-5.64,40.92-15.57,11.12,9.93,25.59,15.57,40.92,15.57,33.63,0,61.37-27.5,61.83-61.46l.16-163.9c.01-7.66-5.7-14.18-13.28-15.17Z"/></g></svg>