<?xml version="1.0" encoding="UTF-8"?><svg id="a" xmlns="http://www.w3.org/2000/svg" xmlns:xlink="http://www.w3.org/1999/xlink" viewBox="0 0 400 399.95"><defs><style>.c{fill:#012169;}.d{fill:#fff;}.e{fill:#ffbe2c;}.f{fill:#e4002b;}.g{clip-path:url(#b);}</style><clipPath id="b"><ellipse class="e" cx="200" cy="199.98" rx="199.96" ry="199.94"/></clipPath></defs><g><ellipse class="e" cx="200" cy="199.98" rx="199.96" ry="199.94"/><g class="g"><ellipse class="f" cx="200" cy="199.98" rx="199.96" ry="199.94"/><path class="c" d="M331.41,49.27C285.65,9.44,222.37-9.17,158.45,4.41,50.43,27.35-18.54,133.51,4.41,241.52c4.2,19.75,11.18,38.19,20.45,55C214.12,219.58,297.71,110.04,331.41,49.27Z"/></g></g><path class="d" d="M289.56,80.01c-2.57-.34-5.14-.51-7.76-.52-17.29,0-33.97,6.76-45.77,18.53-10.95,10.93-16.98,25.39-16.98,40.73v15.11c0,8.95,3.22,17.65,9.23,24.29,6.08,6.72,11.23,14.29,15.2,22.88,.48-1.05,1.36-1.92,2.35-2.79,9.01-7.92,19.67-10.84,30.7-9.83,17.28,1.58,16.93-1.84,10.65,17.69-2.61,8.11-5.22,16.22-7.57,24.41-1.22,4.26-3.84,5.31-7.19,4.34-4.17-1.2-1.69-4.58-1.14-6.79,2-7.99,4.36-15.87,6.82-24.61-5.55,1.08-8.56,4.36-11.38,7.81-4.61,5.66-7.86,12.28-10.45,19.29-.84,2.27-1.74,4.33-4.07,4.28-.79,.08-1.89,.09-3.41,.09-5.45-.01-16.8,.01-21.98,0-4.57-.01-6.81-1.45-8.35-5.98v-.03c-.11-.3-.21-.62-.31-.95-.13-.43-.27-.85-.4-1.28h0c-7.25-23.95-19.38-44.43-37.45-60.3-2.72-2.39-5.86-4.24-8.89-6.16-.34-.21-.84-.51-1.4-.83-1.54-.88-3.39,.39-3.22,2.2,.55,6.02,1.55,16.7,1.95,19.69,.03,.26,.06,.5,.08,.73,14.36,7.39,26.51,17.9,35.25,33.11,1.99,3.47,3.51,7.17,4.79,11.01,.35,1.06,.69,2.13,1.01,3.21h0c.12,.41,.21,.78,.29,1.14,.02,.08,.03,.16,.05,.24,.07,.35,.12,.69,.14,1,0,.02,0,.05,0,.07,.02,.3,.02,.58,0,.85,0,.04,0,.08,0,.11-.03,.28-.07,.54-.15,.77,0,.01,0,.02-.01,.04-.08,.24-.18,.46-.31,.66h0c-.13,.2-.29,.38-.48,.54h-.01c-.37,.32-.85,.55-1.43,.69-.67,.16-1.47,.21-2.42,.16-2.72-.17-5.46-.03-8.19-.03-5.78-.05-9.41-.09-12.01-.92h.12c-4.57-1.45-5.97-5.34-9.95-16.03-4.69-12.58-10.65-21.51-20.98-31.8-.44-.43-1.24-1.18-2.05-1.93-.95-.88-2.42-.1-2.34,1.26,.02,.38,.04,.8,.07,1.22-.05,.16-.08,.34-.07,.53,.28,4.89,.79,13.74,1.02,18.59-.03,.47-.1,.92-.26,1.33,.08,.05,.15,.11,.23,.16-.05,.29-.13,.57-.23,.83,6.64,4.16,12.67,9.8,17.91,17.31,1.03,1.47,2.72,3.51,2.82,5.31,0,.58-.15,1.14-.54,1.65-.97,1.25-2.65,1.52-4.33,1.56h.73c-.91,.07-1.86,.04-2.72,.03-10.44-.09-16.84,.1-21.08-4.07-1.68-1.88-3.1-4.48-4.23-8.04-1.73-5.47-5.84-9.5-11.37-11.64-1.89-.73-3.79,.99-3.53,3.1-.04,.3-.04,.61,.02,.93,.91,4.91,1.75,9.36,2.48,13.84,.15,.93,.42,1.99,.43,2.93-.03,1.27-.55,2.32-2.44,2.58-.48,.07-.99,.15-1.5,.2h.34c-2.2,.27-4.55,.28-5.3-2.76-2.38-9.63-4.44-19.37-6.51-29.09-.65-3.06,1.39-3.91,3.47-3.82,9.29,.41,18.11,2,26.22,5.3-1.39-7.06-2.6-20.83-3.13-25.92-.46-4.41,3.08-3.71,5.43-3.66,5.23,.11,10.25,1.33,15.13,3.14-.14-.66-.27-1.38-.37-2.17-.88-6.54-2.43-16.88-3.01-22.88-.7-7.24-.83-8.96,3.82-9.07,4.71-.11,9.28,.33,13.74,1.22,3.88,.78,7.5-2.16,7.5-6.12h0c0-33.22-27.56-59.25-62.74-59.25-2.51,0-4.76,.22-7.57,.57-7.63,.95-13.38,7.47-13.38,15.15l-.03,164.11c.5,33.78,28.24,61.25,61.86,61.25,15.33,0,29.81-5.64,40.92-15.57,11.12,9.93,25.59,15.57,40.92,15.57,33.63,0,61.37-27.5,61.83-61.46l.16-163.9c.01-7.66-5.7-14.18-13.28-15.17Zm-5.01,184.23c-.02,1.52-1.2,2.42-3.17,2.43-3.57,.02-7.14,0-10.71,0-16.32,0-32.64,0-48.97,0h0c-19.85-.01-79.83,0-99.68-.02-2.36,0-3.44-.83-3.48-2.71-.05-2.5-.06-5-.01-7.51,.04-2.22,1.14-3.11,3.9-3.06,1.28,.02,1.74-.27,1.67-1.31-.1-1.45-.03-2.91-.03-4.36,0-2.19,.96-2.99,3.74-3.03,2.46-.03,4.93-.03,7.4-.03,15.6,0,71.33,0,86.93,0,16.07,0,32.13,.01,48.2,.02,1.7,0,3.4-.04,5.1-.01,2.61,.04,3.71,.93,3.73,3,.02,1.59,.04,3.18,0,4.77-.02,.7,.31,.99,1.19,.95,.63-.03,1.27,0,1.9,.12,1.49,.29,2.28,.99,2.3,2.21,.03,2.84,.04,5.68,0,8.52Z"/></svg>