<?xml version="1.0" encoding="UTF-8"?><svg id="a" xmlns="http://www.w3.org/2000/svg" xmlns:xlink="http://www.w3.org/1999/xlink" viewBox="0 0 400 399.95"><defs><style>.c{fill:#fff;}.d{fill:#ffbe2c;}.e{fill:#ff9934;}.f{fill:#138708;}.g{clip-path:url(#b);}</style><clipPath id="b"><ellipse class="d" cx="200" cy="199.98" rx="199.96" ry="199.94"/></clipPath></defs><g><ellipse class="d" cx="200" cy="199.98" rx="199.96" ry="199.94"/><g class="g"><ellipse class="f" cx="200" cy="199.98" rx="199.96" ry="199.94"/><path class="e" d="M331.41,49.27C285.65,9.44,222.37-9.17,158.45,4.41,50.43,27.35-18.54,133.51,4.41,241.52c4.2,19.75,11.18,38.19,20.45,55C214.12,219.58,297.71,110.04,331.41,49.27Z"/></g></g><g><path class="c" d="M223.96,191.51c-.04-9.41-7.05-17.09-16.38-18.35-3.38-.46-6.78-.12-10.16-.22-1.92-.06-3.83,.06-5.72,.48-8.71,1.93-14.77,9.48-14.81,18.54-.04,10.91,.01,55.06-.01,66.22,0,1.25,.17,2.03,1.73,2.02,14.55-.04,29.1-.03,43.65,0,1.27,0,1.73-.45,1.73-1.73-.02-22.32,.05-44.64-.04-66.95Z"/><path class="c" d="M289.56,80.01c-2.57-.34-5.14-.51-7.76-.52-17.29,0-33.97,6.76-45.77,18.53-9.43,9.41-15.21,21.45-16.63,34.4,0,.34,0,.68,0,1.03-.01,1.1,.33,1.62,1.52,1.62,6.83-.03,13.67-.02,20.5,0,.99,0,1.44-.39,1.42-1.4-.03-1.77,0-3.54,0-5.31q0-2.78,2.82-2.77c2.08,.01,2.1,.01,2.09,2.16,0,8.11,0,16.22-.05,24.33,0,1.39,.43,1.92,1.86,1.9,4.32-.06,8.65-.03,12.98-.01,1.48,0,1.6,.19,.93,1.53-1.79,3.61-3.57,7.23-5.42,10.81-.65,1.26-.94,2.53-.93,3.95,.04,18.14,.05,36.28,.06,54.42,0,11.16-.02,22.32-.02,33.48,0,1.9,.1,2,2.01,2,5.6,.02,11.21,.03,16.81,.05,0,1.38-.03,2.75,.02,4.13,.02,.51-.09,.69-.61,.6-.24-.04-.49,0-.74,0H124.92c-.01-.93,.03-1.87-.05-2.8-.13-1.46,.44-2.01,1.93-1.99,4.82,.07,9.64,.03,14.45,.02q2.49,0,2.49-2.56c0-16.37-.03-32.74-.02-49.11,0-12.73,.01-25.46,.06-38.2,0-1.42-.26-2.69-.92-3.96-1.81-3.49-3.54-7.02-5.29-10.54-.87-1.74-.8-1.83,1.2-1.84,4.13,0,8.26,0,12.39,0,1.93,0,2.02-.09,2.02-1.99,0-7.67-.04-15.34-.01-23.01,.01-3.7-.66-3.36,3.52-3.38,1.02,0,1.4,.41,1.39,1.41-.03,2.11,.05,4.23-.02,6.34-.04,1.26,.39,1.76,1.69,1.75,6.69-.04,13.37-.04,20.06,0,.4,0,.71-.05,.96-.15-2-31.4-28.77-55.47-62.61-55.48-2.51,0-4.76,.22-7.57,.57-7.63,.95-13.38,7.47-13.38,15.15l-.03,164.11c.5,33.78,28.24,61.25,61.86,61.25,15.33,0,29.81-5.64,40.92-15.57,11.12,9.93,25.59,15.57,40.92,15.57,33.63,0,61.37-27.5,61.83-61.46l.16-163.9c.01-7.66-5.7-14.18-13.28-15.17Z"/></g></svg>