<?xml version="1.0" encoding="UTF-8"?><svg id="a" xmlns="http://www.w3.org/2000/svg" xmlns:xlink="http://www.w3.org/1999/xlink" viewBox="0 0 400 399.95"><defs><style>.c{fill:#002653;}.d{fill:#fff;}.e{fill:#ffbe2c;}.f{fill:#dd1d3f;}.g{clip-path:url(#b);}</style><clipPath id="b"><ellipse class="e" cx="200" cy="199.98" rx="199.96" ry="199.94"/></clipPath></defs><g><ellipse class="e" cx="200" cy="199.98" rx="199.96" ry="199.94"/><g class="g"><ellipse class="f" cx="200" cy="199.98" rx="199.96" ry="199.94"/><path class="c" d="M331.41,49.27C285.65,9.44,222.37-9.17,158.45,4.41,50.43,27.35-18.54,133.51,4.41,241.52c4.2,19.75,11.18,38.19,20.45,55C214.12,219.58,297.71,110.04,331.41,49.27Z"/></g></g><g><path class="d" d="M289.56,80.01c-2.57-.34-5.14-.51-7.76-.52-17.29,0-33.97,6.76-45.77,18.53-10.95,10.93-16.98,25.39-16.98,40.73v4.13c0,.44,.26,.83,.67,1,10.16,4.35,17.97,11.35,23.44,21,3.83,6.76,5.71,14.04,5.94,21.72l.13,4.29c.1,3.37-2.58,6.13-5.96,6.13h-86.38c-3.31,0-6.01-2.66-6.05-5.97-.04-2.94-.02-5.88,.37-8.8,2.27-16.97,11.31-29.38,26.79-37.36l2.3-1.17c.37-.19,.6-.56,.6-.98v-4.04c0-33.22-27.56-59.25-62.74-59.25-2.51,0-4.76,.22-7.57,.57-7.63,.95-13.38,7.47-13.38,15.15l-.03,164.11c.5,33.78,28.24,61.25,61.86,61.25,15.33,0,29.81-5.64,40.92-15.57,11.12,9.93,25.59,15.57,40.92,15.57,33.63,0,61.37-27.5,61.83-61.46l.16-163.9c.01-7.66-5.7-14.18-13.28-15.17Zm-40.53,189.96c-1.97,0-10.08,.03-14.9,.04-2.03,0-3.69-1.62-3.72-3.66-.02-1.3-.03-2.86-.03-4.54v-.03c0-1.48-1-2.86-2.45-3.11-1.89-.33-3.52,1.12-3.52,2.94v6.98c0,.82-.66,1.48-1.48,1.48h-9.61c-.82,0-1.48-.66-1.48-1.48v-6.79c0-1.63-1.22-3.11-2.85-3.18-1.71-.08-3.12,1.29-3.12,2.98v6.98c0,.82-.66,1.48-1.48,1.48h-9.61c-.82,0-1.48-.66-1.48-1.48v-6.81c0-1.48-1-2.86-2.45-3.11-1.89-.33-3.52,1.12-3.52,2.94v6.98c0,.82-.66,1.48-1.48,1.48h-9.61c-.82,0-1.48-.66-1.48-1.48v-6.81c0-1.48-1-2.86-2.45-3.11-1.89-.33-3.52,1.12-3.52,2.94v4.81c0,2.02-1.64,3.65-3.65,3.65h-14.3c-1.9,0-3.45-1.53-3.46-3.43-.06-10.29-.23-40.76-.25-50.19,0-.37,.02-.75,.1-1.12,.49-2.13,1.87-3.98,2.81-5.98,.3-.63,.93-1.02,1.62-1.02h15.07c1.05,0,1.93,.86,1.95,1.91l.11,4.8c.03,1.46,1.04,2.8,2.48,3.04,1.87,.31,3.5-1.13,3.5-2.95v-5.32c0-.82,.66-1.48,1.48-1.48h9.61c.82,0,1.48,.66,1.48,1.48v5.13c0,1.63,1.22,3.11,2.85,3.18,1.71,.08,3.12-1.29,3.12-2.98v-5.32c0-.82,.66-1.48,1.48-1.48h9.61c.82,0,1.48,.66,1.48,1.48v5.13c0,1.63,1.22,3.11,2.85,3.18,1.71,.08,3.12-1.29,3.12-2.98v-5.32c0-.82,.66-1.48,1.48-1.48h9.61c.82,0,1.48,.66,1.48,1.48v5.15c0,1.48,1,2.86,2.45,3.11,1.89,.33,3.52-1.12,3.52-2.94v-5.32c0-.82,.66-1.48,1.48-1.48h16.59c.57,0,1.11,.33,1.34,.86,.44,1.01,1.02,1.98,1.57,2.95,1.14,1.98,1.54,4.01,1.53,6.27-.06,15.24-.04,32.21-.04,47.72,0,2.12-1.71,3.83-3.82,3.84Z"/><rect class="d" x="153.43" y="220.94" width="10.19" height="35.32" rx="2.39" ry="2.39"/><rect class="d" x="236.73" y="220.94" width="10.19" height="35.32" rx="2.39" ry="2.39"/><rect class="d" x="176.16" y="220.94" width="10.19" height="35.32" rx="2.39" ry="2.39"/><rect class="d" x="194.66" y="220.94" width="10.19" height="35.32" rx="2.39" ry="2.39"/><path class="d" d="M200,103.73h0c6.24,0,11.31,5.07,11.31,11.31v26.15h-22.63v-26.15c0-6.24,5.07-11.31,11.31-11.31Z"/><rect class="d" x="213.43" y="220.94" width="10.19" height="35.32" rx="2.39" ry="2.39"/></g></svg>