<?xml version="1.0" encoding="UTF-8"?><svg id="a" xmlns="http://www.w3.org/2000/svg" xmlns:xlink="http://www.w3.org/1999/xlink" viewBox="0 0 400 399.95"><defs><style>.c{fill:#00732f;}.d{fill:#fff;}.e{fill:#ffbe2c;}.f{fill:#da281b;}.g{clip-path:url(#b);}</style><clipPath id="b"><ellipse class="e" cx="200" cy="199.98" rx="199.96" ry="199.94"/></clipPath></defs><g><ellipse class="e" cx="200" cy="199.98" rx="199.96" ry="199.94"/><g class="g"><ellipse class="c" cx="200" cy="199.98" rx="199.96" ry="199.94"/><path class="f" d="M331.41,49.27C285.65,9.44,222.37-9.17,158.45,4.41,50.43,27.35-18.54,133.51,4.41,241.52c4.2,19.75,11.18,38.19,20.45,55C214.12,219.58,297.71,110.04,331.41,49.27Z"/></g></g><g><path class="d" d="M289.56,80.01c-2.57-.34-5.14-.51-7.76-.51-17.29,0-33.97,6.75-45.77,18.53-4.26,4.25-7.78,9.04-10.48,14.21-2.43,4.65,.93,10.22,6.18,10.22,2.25,0,4.49,0,6.74,0,.8,0,1.62-.06,2.39,.26,1.56,.64,2.61,2.41,2.38,4.05-.26,1.85-1.73,3.29-3.66,3.39-2.05,.1-4.1,.08-6.15,.03-1.81-.05-2.13,.94-2.05,4.15,.1,3.71-.8,7.34-2.18,10.78-.65,1.63,.1,2.53,.75,3.56,8.88,13.91,15.35,28.83,18.88,44.98,2.7,12.38,4.09,24.89,3.51,37.57-.26,5.59-1.01,11.13-2.24,16.6-.49,2.17-.43,2.26,1.73,2.26,5.47,.01,10.94-.02,16.42,.01,8.55,.05,15.12,6.93,14.77,15.62-.08,1.94-.08,3.88,.04,5.82,.13,2.13-.55,3.73-2.39,4.79H133.65c-1.81-1.05-2.49-2.61-2.39-4.68,.11-2.36,0-4.73,.03-7.09,.09-7.83,6.58-14.37,14.4-14.46,4.79-.05,9.58-.05,14.36,0,1.35,.02,2-.38,1.85-1.8-.06-.61,0-1.24,0-1.86,0-41.03,0-82.06,0-123.08,0-23.99-19.25-43.73-43.23-43.9-.17,0-.34,0-.51,0-2.51,0-4.76,.22-7.57,.57-7.63,.95-13.38,7.47-13.38,15.15l-.03,164.11c.5,33.78,28.24,61.25,61.86,61.25,15.33,0,29.81-5.64,40.92-15.57,11.12,9.93,25.59,15.57,40.92,15.57,33.63,0,61.37-27.5,61.83-61.46l.16-163.9c.01-7.66-5.7-14.18-13.28-15.17Z"/><path class="d" d="M217.72,130.21c1.6,0,3.21,.02,4.81-.01,.92-.02,1.25,.36,1.05,1.04-.32,1.85-.6,3.49-.87,5.13-.17,1.03-.64,.96-1.18,.3-1.48-1.82-2.93-3.66-4.38-5.5-.6-.77-.14-.95,.57-.95Z"/><path class="d" d="M178.65,121.6v29.9c0,2.29,1.97,4.15,4.4,4.15h25.58c3.48,0,5.58-3.62,3.7-6.39-5.18-7.64-14.78-20.64-26.28-30.7-2.82-2.47-7.4-.59-7.4,3.04Z"/><path class="d" d="M178.65,171.65v26.03c0,2.29,1.97,4.14,4.4,4.14h43.75c2.79,0,4.88-2.41,4.31-4.98-1.49-6.66-4.56-18.61-9.07-27.09-.74-1.39-2.26-2.24-3.91-2.24h-35.08c-2.43,0-4.4,1.85-4.4,4.14Z"/><path class="d" d="M178.65,217.96v26.54c0,2.29,1.97,4.14,4.4,4.14h41.87c1.83,0,3.46-1.06,4.11-2.67,1.83-4.53,5.06-14.57,4.58-28.11-.08-2.25-2.01-4.05-4.4-4.05h-46.16c-2.43,0-4.4,1.85-4.4,4.14Z"/></g></svg>